<svg width="350" height="351" viewBox="0 0 350 351" fill="none" xmlns="http://www.w3.org/2000/svg">
<path d="M325.306 185.482C323.717 169.945 318.4 147.453 296.725 139.457C288.61 149.757 272.417 142.742 268.2 135.75C259.716 149.015 245.299 161.46 235.765 177.575C231.165 185.359 225.615 194.522 231.245 203.069C248.183 201.516 265.226 201.478 282.17 202.957C287.406 193.868 288.019 190.508 287.945 182.482C287.945 181.63 289.17 181.257 289.279 182.297C290.092 189.588 288.44 196.941 284.585 203.183C286.666 203.314 288.731 203.62 290.761 204.097C292.511 204.52 291.996 205.715 290.451 205.566C271.389 203.733 252.198 203.7 233.13 205.468C239.194 213.151 238.873 217.82 237.367 225.768C247.359 232.623 283.917 241.693 300.367 236.687C315.49 232.084 327.175 203.762 325.306 185.482Z" fill="#253853"/>
<path d="M170.94 153.282C161.577 147.614 141.841 146.119 130.959 151.924C128.613 161.225 120.769 172.329 116.891 175.848C111.135 174.448 101.118 169.76 97.375 162.571C80.7501 167.882 64.4961 193.164 59.6923 210.124C53.0231 203.108 40.1518 184.852 37.4673 178.652C31.7997 182.514 25.3067 184.997 18.5078 185.902C23.7823 222.652 47.8046 256.446 64.8496 255.181C78.4365 254.171 87.2303 239.791 92.4173 230.219C89.2464 226.685 86.506 222.787 84.2535 218.608C83.7968 217.75 84.4286 216.126 85.4891 217.496C106.314 244.446 135.399 260.973 174.039 263.196C154.71 236.851 148.151 179.233 170.94 153.282Z" fill="#253853"/>
<path d="M117.509 131.025C122.87 130.309 123.214 122.009 118.657 119.538C119.363 114.822 119.624 110.051 119.436 105.286C119.179 98.5168 115.432 95.5313 109.234 94.812C103.769 94.1738 98.6609 91.7716 94.684 87.9695C87.7943 81.3843 88.3105 91.76 94.684 96.282C88.8499 95.6322 83.1715 93.9817 77.8981 91.403C74.2791 89.2295 72.5168 89.975 73.2921 93.1198C73.6677 94.7378 74.3957 96.253 75.4242 97.5573C76.4527 98.8617 77.7563 99.9231 79.242 100.666C73.3145 101.448 67.2909 101.05 61.5181 99.4933C56.5446 98.0933 54.1086 98.5535 56.7143 102.89C58.8567 106 61.6301 108.623 64.854 110.59C68.0779 112.556 71.6799 113.821 75.4253 114.302C84.009 115.238 93.2595 112.832 103.264 108.966C104.448 114.611 107.584 119.658 112.119 123.22C112.657 123.645 113.427 123.714 113.694 122.935C115.287 118.21 121.405 122.935 119.091 127.357C118.285 128.899 117.128 128.79 116.004 128.803C114.881 128.815 115.25 129.494 115.411 130.507C116.067 134.656 123.185 150.522 126.244 153.208C126.973 153.849 127.654 153.009 127.206 152.282C123.086 145.636 119.828 138.493 117.509 131.025Z" fill="#253853"/>
<path d="M87.3977 118.997C86.5409 119.131 85.7344 119.489 85.0588 120.032C84.3832 120.576 83.8622 121.288 83.5477 122.096C82.9737 123.598 83.7577 124.245 84.7815 122.924C85.6846 121.97 86.8093 121.253 88.0557 120.838C89.076 120.43 89.1635 118.712 87.3977 118.997Z" fill="#253853"/>
<path d="M85.3087 127.406C85.0392 128.173 85.6587 128.542 86.322 127.975C86.6888 127.659 87.1182 127.424 87.582 127.286C88.0458 127.147 88.5336 127.109 89.0135 127.172C89.9655 127.172 90.0337 126.367 89.2725 125.936C88.9227 125.735 88.5329 125.613 88.1309 125.58C87.7288 125.546 87.3242 125.601 86.9459 125.742C86.5676 125.882 86.2248 126.104 85.9419 126.391C85.6589 126.679 85.4428 127.026 85.3087 127.406Z" fill="#253853"/>
<path d="M99.9439 123.222C99.5687 122.988 99.1477 122.837 98.7093 122.78C98.2709 122.723 97.8253 122.761 97.4026 122.891C96.98 123.02 96.5902 123.24 96.2597 123.533C95.9291 123.827 95.6655 124.188 95.4866 124.592C95.2136 125.334 95.7036 125.716 96.1866 125.371C97.1524 124.662 98.3221 124.285 99.5204 124.297C100.129 124.221 100.735 123.651 99.9439 123.222Z" fill="#253853"/>
<path d="M98.6235 137.548C97.997 137.91 97.9235 138.869 99.131 138.585C103.182 137.623 105.389 135.21 103.786 132.175C103.326 131.3 102.071 132.026 102.465 132.903C103.726 135.707 100.137 136.671 98.6235 137.548Z" fill="#253853"/>
<path d="M98.6993 117.107C97.7597 116.65 96.7198 116.439 95.6766 116.493C94.6334 116.548 93.6209 116.865 92.7336 117.416C92.5637 117.547 92.4442 117.732 92.3954 117.94C92.3467 118.149 92.3717 118.368 92.4662 118.56C92.5607 118.752 92.7188 118.905 92.9137 118.994C93.1086 119.082 93.3282 119.101 93.5351 119.046C95.0408 118.449 96.6683 118.225 98.2793 118.391C99.3398 118.575 99.7686 117.717 98.6993 117.107Z" fill="#253853"/>
<path d="M91.4852 126.554C91.0337 128.325 90.3249 134.058 92.4599 134.644C93.5729 134.951 96.8909 133.645 96.2399 132.508C95.7307 131.62 93.3542 133.309 93.0532 132.805C92.4408 130.764 92.2807 128.614 92.5842 126.505C92.6087 125.53 91.9612 124.682 91.4852 126.554Z" fill="#253853"/>
<path d="M198.237 159.444C198.054 155.344 193.297 150.008 189.393 149.984C188.479 149.984 187.776 151.317 188.693 151.559C190.687 152.091 192.504 153.143 193.958 154.608C195.412 156.073 196.451 157.898 196.969 159.896C197.271 160.96 198.311 161.112 198.237 159.444Z" fill="#253853"/>
<path d="M201.601 153.269C200.32 147.783 194.191 145.456 189.041 146.156C183.2 146.95 178.331 150.984 174.59 155.431C170.612 160.156 174.082 167.632 166.438 170.72C164.688 171.42 165.376 172.635 167.154 172.092C176.406 169.264 172.873 159.863 176.282 156.566C179.691 153.269 183.298 149.663 188.201 148.476C193.105 147.29 198.229 149.124 200.231 153.873C200.605 154.778 201.821 154.234 201.601 153.269Z" fill="#253853"/>
<path d="M192.183 162.311C192.921 163.886 194.01 163.312 193.604 161.786C192.624 158.083 189.266 152.833 184.723 153.363C183.809 153.47 183.968 154.886 184.723 155.092C189.978 156.52 191.017 159.807 192.183 162.311Z" fill="#253853"/>
<path d="M179.771 156.939C178.796 157.099 178.536 158.623 179.771 158.668C181.421 158.647 183.03 159.177 184.343 160.175C185.657 161.173 186.6 162.581 187.021 164.176C187.49 165.128 188.246 165.128 188.257 163.843C188.276 160.063 183.798 156.28 179.771 156.939Z" fill="#253853"/>
<path d="M17.5247 161.435C15.381 153.096 14.9312 150.585 15.0555 145.254C15.0835 144.019 13.981 144.315 13.561 145.933C12.6582 151.468 13.5221 157.147 16.0302 162.163C16.4765 163.052 17.761 162.348 17.5247 161.435Z" fill="#253853"/>
<path d="M10.188 151.419C10.188 149.998 8.80547 150.628 8.76697 151.529C8.60879 158.508 10.503 165.38 14.2147 171.292C16.3336 174.918 17.9619 178.81 19.057 182.865C19.3772 184 20.7807 184.186 20.6005 181.951C19.8413 177.698 18.2525 173.635 15.9245 169.995C12.5192 164.367 10.5492 157.987 10.188 151.419Z" fill="#253853"/>
<path d="M34.5939 154.098C33.7521 152.642 32.7441 153.683 33.3601 154.798C37.3431 161.959 28.7191 171.035 34.5939 177.648C34.7406 177.782 34.9284 177.861 35.1265 177.874C35.3246 177.887 35.5212 177.833 35.6841 177.719C35.8469 177.605 35.9663 177.44 36.0226 177.249C36.0789 177.059 36.0688 176.855 35.9939 176.671C32.1579 169.323 38.7834 161.341 34.5939 154.098Z" fill="#253853"/>
<path d="M25.7635 145.174C25.746 144.359 24.6995 143.617 24.381 145.174C23.7703 148.149 24.122 157.034 26.047 159.501C26.158 159.637 26.3103 159.733 26.4808 159.774C26.6512 159.816 26.8305 159.8 26.9913 159.73C27.1521 159.66 27.2857 159.54 27.3718 159.387C27.4579 159.234 27.4916 159.057 27.468 158.884C26.4887 154.374 25.9183 149.786 25.7635 145.174Z" fill="#253853"/>
<path d="M20.6996 142.981C20.6996 142.068 19.6496 141.957 19.3171 142.981C17.9976 147.136 18.4841 155.921 20.9341 159.781C21.4591 160.619 22.9186 160.276 22.6841 159.176C21.1855 153.913 20.516 148.45 20.6996 142.981Z" fill="#253853"/>
<path d="M225.828 206.424C226.742 206.797 226.985 205.355 226.446 204.849C223.32 201.886 214.094 201.489 209.45 204.973C209.276 205.067 209.145 205.225 209.084 205.413C209.023 205.601 209.037 205.805 209.123 205.983C209.209 206.161 209.36 206.299 209.545 206.369C209.73 206.438 209.935 206.433 210.117 206.356C218.034 203.255 222.134 204.928 225.828 206.424Z" fill="#253853"/>
<path d="M218.987 220.005C227.086 218.67 227.784 220.891 230.337 221.067C230.572 221.087 230.805 221.013 230.986 220.862C231.167 220.711 231.281 220.495 231.303 220.261C231.498 218.11 223.157 216.355 218.479 218.647C217.557 219.099 218.098 220.152 218.987 220.005Z" fill="#253853"/>
<path d="M214.305 216.102C222.596 213.531 225.412 215.155 230.041 216.422C230.965 216.676 231.203 215.309 230.583 214.805C227.326 212.143 218.333 212.169 213.823 214.73C213.02 215.186 213.304 216.411 214.305 216.102Z" fill="#253853"/>
<path d="M211.833 211.777C219.246 209.525 222.531 210.612 227.484 211.427C227.677 211.457 227.875 211.423 228.048 211.33C228.22 211.237 228.358 211.091 228.44 210.913C228.522 210.736 228.544 210.536 228.503 210.345C228.462 210.153 228.36 209.98 228.212 209.852C225.041 207.092 214.926 207.449 211.167 210.433C210.349 211.088 210.895 212.062 211.833 211.777Z" fill="#253853"/>
<path d="M333.568 99.6172C329.699 101.534 325.39 102.387 321.082 102.088C316.425 111.153 309.576 126.952 297.151 125.4C293.087 124.894 290.786 121.772 288.357 118.853C287.689 118.051 286.941 118.783 287.307 119.57C288.626 122.388 290.625 124.833 293.124 126.684C291.889 129.309 290.653 136.257 291.222 138.826C291.255 138.983 291.341 139.124 291.466 139.226C291.591 139.327 291.746 139.382 291.907 139.382C292.068 139.382 292.224 139.327 292.348 139.226C292.473 139.124 292.559 138.983 292.592 138.826C292.674 137.614 292.86 136.411 293.149 135.231C301.486 136.96 312.355 142.756 318.272 152.411C335.661 148.706 337.193 129.363 327.324 122.052C339.412 118.972 338.943 103.768 333.568 99.6172Z" fill="#253853"/>
<path d="M303.926 108.224C305.326 108.59 306.726 105.384 305.568 104.656C304.028 103.699 302.02 107.724 303.926 108.224Z" fill="#253853"/>
<path d="M312.275 112.098C313.313 112.163 314.464 110.059 314.189 109.231C313.395 106.848 309.818 111.947 312.275 112.098Z" fill="#253853"/>
<path d="M315.041 104.149C315.912 104.669 316.596 105.452 316.993 106.385C317.227 107.225 318.363 107.496 318.351 106.002C318.279 105.222 317.991 104.477 317.52 103.851C317.049 103.225 316.413 102.742 315.684 102.456C314.359 101.959 313.262 103.104 315.041 104.149Z" fill="#253853"/>
<path d="M308.26 101.211C309.853 101.736 310.36 100.369 309.1 99.4435C308.14 98.8502 307.028 98.5474 305.9 98.5717C304.771 98.5959 303.673 98.9461 302.739 99.58C302.146 100.21 302.468 100.816 303.264 100.692C304.942 100.315 306.696 100.498 308.26 101.211Z" fill="#253853"/>
<path d="M296.022 114.024C295.899 114.653 295.905 115.3 296.038 115.926C296.171 116.553 296.429 117.146 296.797 117.671C297.165 118.195 297.634 118.64 298.178 118.979C298.722 119.318 299.328 119.544 299.961 119.643C300.047 119.703 300.146 119.742 300.25 119.758C300.355 119.773 300.461 119.764 300.561 119.731C300.661 119.698 300.752 119.642 300.826 119.568C300.901 119.494 300.958 119.404 300.992 119.304C301.026 119.205 301.036 119.099 301.022 118.994C301.007 118.89 300.969 118.791 300.91 118.704C300.851 118.617 300.772 118.545 300.68 118.493C300.588 118.442 300.486 118.413 300.381 118.408C299.958 118.302 299.561 118.11 299.214 117.845C298.868 117.581 298.579 117.248 298.366 116.867C298.153 116.486 298.02 116.066 297.975 115.632C297.93 115.199 297.975 114.76 298.106 114.344C298.64 111.289 296.37 111.906 296.022 114.024Z" fill="#253853"/>
<path d="M307.631 116.601C309.089 115.91 310.388 110.25 309.656 109.498C308.524 108.334 308.431 113.28 306.816 114.687C306.116 115.292 305.241 113.549 304.347 114.069C303.249 114.706 305.643 117.541 307.631 116.601Z" fill="#253853"/>
<path d="M217.468 275.287C215.925 276.647 218.473 278.456 219.937 277.509C237.437 266.208 256.523 277.966 252.125 298.049C251.985 298.478 252.018 298.945 252.218 299.35C252.418 299.755 252.768 300.066 253.194 300.216C253.619 300.367 254.087 300.344 254.497 300.154C254.906 299.964 255.225 299.621 255.385 299.199C264.351 276.615 235.472 259.402 217.468 275.287Z" fill="#253853"/>
<path d="M256.533 268.802C241.714 255.677 211.191 254.758 195.808 267.766C163.433 295.146 193.148 341.115 234.245 333.078C265.373 326.998 279.894 289.485 256.533 268.802ZM238.377 328.447C204.012 339.553 168.202 303.531 194.468 273.781C207.792 258.685 237.992 258.046 253.322 270.569C274.613 287.961 263.929 320.189 238.377 328.447Z" fill="#253853"/>
<path d="M289.192 101.6C289.74 103.266 289.717 103.826 292.044 102.367C295.677 100.091 299.158 98.0806 301.344 90.7324C305 94.6355 309.677 97.4343 314.845 98.8107C320.013 100.187 325.463 100.086 330.576 98.5182C341.135 95.2562 350.844 70.9994 323.401 69.2704C324.314 54.7822 299.809 54.6842 297.093 66.3304C288.273 59.9569 277.33 65.1054 275.885 70.7894C284.532 94.3812 277.12 117.6 270.945 130.174C269.216 133.695 271.47 133.149 271.995 132.113C275.96 124.184 279.058 116.4 284.595 109.288C285.561 108.047 284.707 107.571 283.657 107.078C283.271 106.855 282.934 106.556 282.666 106.2C282.399 105.844 282.206 105.437 282.1 105.004C281.994 104.571 281.976 104.122 282.048 103.682C282.12 103.242 282.28 102.822 282.519 102.445C283.952 99.1727 288.128 98.3781 289.192 101.6Z" fill="#253853"/>
<path d="M109.801 141.486C108.852 143.144 107.536 144.562 105.954 145.633C104.372 146.703 102.565 147.397 100.673 147.661C86.5682 149.378 83.252 128.914 81.0837 119.156C80.725 117.537 79.7135 118.414 79.8482 119.331C80.8737 130.163 85.1717 150.888 99.611 149.877C100.259 153.771 100.371 157.735 99.9435 161.66C99.8472 162.61 100.846 163.562 101.587 161.535C102.49 159.066 102.39 152.785 101.858 149.506C103.796 148.999 105.605 148.09 107.169 146.839C108.733 145.588 110.017 144.022 110.937 142.243C111.448 141.26 110.314 140.623 109.801 141.486Z" fill="#253853"/>
<path d="M189.9 258.303C198.547 256.553 221.638 248.874 228.374 243.038C229.471 242.086 228.225 240.074 226.892 240.716C209.917 248.878 202.189 250.596 185.034 255.722C166.211 229.945 158.019 198.942 180.748 167.461C181.924 165.832 179.535 164.328 178.277 165.93C158.414 191.226 158.502 223.375 179.82 254.858C183.177 259.814 183.401 259.623 189.9 258.303Z" fill="#253853"/>
<path d="M100.388 41.1096C137.736 17.2501 182.941 12.8436 223.283 32.1251C268.51 53.7464 285.023 90.0064 258.016 135.147C247.25 153.139 222.708 175.124 219.591 193.704C219.241 195.778 222.076 196.597 222.443 194.493C225.474 177.139 248.048 156.811 258.336 140.943C286.747 97.1096 277.264 58.1791 231.736 32.8584C191.089 10.2589 136.611 10.9501 99.049 39.3929C97.649 40.4569 98.7463 42.1596 100.388 41.1096Z" fill="#253853"/>
<path d="M208.154 98.7281C220.953 112.471 213.523 131.48 199.966 141.612C198.496 142.711 200.249 144.86 201.891 143.649C215.588 133.559 224.116 115.245 213.451 99.7046C198.489 77.9066 164.899 82.2641 144.284 99.3546C131.614 85.6609 112.7 62.7079 101.49 47.4706C100.328 45.8956 98.7351 47.0751 100.044 48.8706C111.167 64.2059 127.78 86.1631 140.569 100.744C142.928 103.436 143.591 104.164 146.472 101.882C163.219 88.6201 191.518 80.8659 208.154 98.7281Z" fill="#253853"/>
<path d="M246.886 62.4268C225.277 31.6478 173.46 21.8775 140.666 39.0713C140.217 39.2766 139.867 39.6518 139.694 40.1146C139.521 40.5774 139.539 41.09 139.743 41.5398C139.948 41.9896 140.322 42.34 140.785 42.514C141.247 42.688 141.76 42.6715 142.21 42.468C182.414 27.0908 215.535 38.3695 244.639 64.539C246.382 66.107 248.325 64.4778 246.886 62.4268Z" fill="#253853"/>
<path d="M230.25 236.986C232.161 240.323 235.017 238.561 233.003 235.357C230.989 232.152 228.845 228.623 226.692 225.303C225.891 224.066 223.703 225.303 224.431 226.636C226.336 230.106 228.276 233.556 230.25 236.986Z" fill="#253853"/>
</svg>
