<svg width="80" height="80" viewBox="0 0 80 80" fill="none" xmlns="http://www.w3.org/2000/svg">
<path fill-rule="evenodd" clip-rule="evenodd" d="M37.9357 8.40236C36.7605 9.24781 35.7998 10.0932 35.7998 10.3131C35.4759 10.9527 35.0631 11.5446 34.5731 12.0716L33.4064 13.5257L31.6909 11.9194C30.2926 10.791 28.7739 9.81583 27.1616 9.01107C24.7168 7.8021 23.7304 7.64991 19.5186 7.64991C15.3068 7.64991 14.2774 7.85282 11.7984 9.01107C8.97588 10.3185 6.50464 12.2613 4.584 14.683C2.66335 17.1046 1.34704 19.9373 0.741229 22.9524C-1.2403 32.4298 6.95176 43.1162 16.7822 43.9194C18.5664 44.0209 20.0418 44.376 20.0418 44.6296C20.0418 44.8833 18.2062 49.3387 15.9673 54.4621C13.7284 59.5855 11.8927 64.3031 11.8927 64.9034C11.8927 66.4082 13.9257 69.1306 15.9158 70.3227C17.4427 71.1681 19.4757 71.3794 34.3415 72.0135L51.0944 72.7659L53.136 71.4133C54.4141 70.5523 55.5169 69.4626 56.3871 68.2005C57.6652 66.3406 78.7929 18.0235 79.402 15.7154C79.5178 14.5798 79.3898 13.4328 79.0262 12.349C78.6626 11.2653 78.0717 10.2691 77.2918 9.42535C76.0652 8.31782 75.5762 8.22481 62.426 7.6161C41.0581 6.60156 40.4319 6.60156 37.9357 8.40236ZM60.8477 8.60527C71.1414 9.05335 75.7134 9.45071 76.2881 9.90725C78.0725 11.3614 77.4634 13.289 69.5716 30.9841C52.7672 68.5725 54.4485 65.157 52.0037 66.4082C50.5283 67.1607 49.3531 67.1607 36.3745 66.4082C14.6806 65.157 14.4833 65.1062 13.8742 64.0071C13.4625 63.2547 15.4012 58.385 24.1078 38.3141C30.0095 24.7109 35.4051 12.7226 36.1171 11.7165C36.8634 10.4789 37.9452 9.47106 39.2409 8.80641C40.5366 8.14176 41.9947 7.84664 43.4514 7.95427C44.9611 7.95427 52.8014 8.25018 60.8477 8.5799V8.60527ZM26.6298 10.0087C30.1468 11.5643 32.746 13.7202 32.746 15.0307C32.746 15.9352 32.4886 15.8338 30.7043 14.2782C27.4962 11.3614 24.8542 10.3131 20.2134 10.051C16.4476 9.79734 15.7356 9.8988 13.0937 11.1078C7.02894 13.8639 3.71781 18.5815 3.31464 25.0069C3.10877 28.3887 3.26317 29.1664 4.48125 31.8296C5.59515 34.3521 7.33588 36.5574 9.54274 38.2418C11.7496 39.9263 14.3514 41.0358 17.1082 41.4676C19.5015 41.8142 19.6044 41.865 18.3348 42.3131C13.3939 43.6658 6.2655 39.3963 3.21172 33.2753C2.13946 31.1702 1.94215 30.0119 1.94215 26.0045C1.94215 20.3316 3.00583 17.5501 6.4199 14.0584C10.5974 9.83116 14.2088 8.38545 20.0161 8.58835C22.2982 8.59251 24.5529 9.07674 26.6298 10.0087ZM24.9141 11.5136C26.845 12.2664 28.6231 13.3545 30.164 14.7263L32.4801 16.9329L30.9531 18.1419C30.0954 18.8436 29.7265 19.3931 30.0954 19.4438C30.2424 19.4341 30.3876 19.4805 30.5009 19.5734C30.6143 19.6662 30.6871 19.7984 30.7043 19.9427C30.7043 20.45 23.4731 37.3081 22.2036 39.7176C21.4401 41.121 21.3886 41.121 17.9144 40.9181C12.0213 40.47 7.79239 37.325 5.03026 31.4069C4.14493 29.575 3.70275 27.5656 3.73847 25.5368C3.7742 23.508 4.28684 21.515 5.23612 19.7144C8.96758 11.9617 17.0395 8.5799 24.9485 11.5136H24.9141Z" fill="#253853"/>
<path fill-rule="evenodd" clip-rule="evenodd" d="M39.5147 11.3624C38.2656 12.2656 37.136 13.3194 36.1522 14.499C34.6768 16.3589 18.6357 52.6369 17.8723 55.7989C17.2633 58.3352 18.0782 61.3196 19.6565 62.1735C20.317 62.5201 25.97 63.0189 34.2392 63.374L47.7239 64.025L50.2973 62.6215C53.5055 60.8208 55.3413 58.1576 58.6009 50.6839C59.9734 47.4205 63.6877 38.8477 66.8445 31.7629C70.1555 24.1539 72.6518 17.7623 72.8062 16.4097C73.0549 14.3045 72.9005 13.8733 71.631 12.4445L70.1556 10.8888L60.9942 10.3901C55.9503 10.1364 49.5339 9.88281 46.686 9.88281C41.8051 9.90817 41.4448 9.9589 39.5147 11.3624ZM56.6708 11.4638C71.6396 12.1232 71.6396 12.1232 71.3308 16.3335C71.1335 18.5909 69.6151 22.556 64.0566 35.2545C60.2393 44.081 56.2676 52.9159 55.3499 54.8688C53.5141 58.6818 50.5633 61.8438 48.2215 62.4018C47.4581 62.5962 40.9901 62.4524 33.8103 62.1481C18.9446 61.4464 18.996 61.4464 18.996 57.6334C19.0475 55.7735 20.7116 51.5124 27.3425 36.3029C35.8519 16.7817 37.679 13.4759 40.8872 11.7851C42.9717 10.7113 41.3933 10.7621 56.6708 11.4638Z" fill="#253853"/>
<path fill-rule="evenodd" clip-rule="evenodd" d="M51.0701 12.4187C52.0909 13.0697 56.826 13.0697 56.4142 12.4187C56.2684 12.1228 54.7844 11.9199 53.206 11.9199C51.1216 11.9622 50.4953 12.0721 51.0701 12.4187Z" fill="#253853"/>
<path fill-rule="evenodd" clip-rule="evenodd" d="M45.4692 28.4733C45.0156 29.2691 44.675 30.1225 44.457 31.0096C44.457 31.7113 45.3149 31.6606 45.6237 30.8575C45.778 30.5615 46.2327 29.4033 46.6959 28.3211C47.8111 25.8693 46.7989 25.9201 45.4692 28.4733Z" fill="#253853"/>
<path fill-rule="evenodd" clip-rule="evenodd" d="M34.3173 31.2894C31.7439 34.5528 31.6238 39.5155 34.0686 42.1279C39.773 48.0968 50.6671 45.7887 54.124 37.9008C55.2992 35.2461 55.2992 31.9319 54.1755 30.8244C53.3177 29.9789 53.1118 30.6806 53.6179 32.5153C55.0419 37.3851 49.7492 43.7597 43.7446 44.4107C40.0217 44.8588 38.0402 44.2078 35.544 41.8744C33.5539 40.0228 33.2536 39.4649 33.2536 37.7148C33.2536 35.449 34.3173 32.5407 35.4925 31.543C35.9471 31.1879 36.3074 30.7399 36.3074 30.4862C36.3074 29.5816 35.3381 29.9789 34.3173 31.2894Z" fill="#253853"/>
<path fill-rule="evenodd" clip-rule="evenodd" d="M19.3564 13.2725C18.7902 13.7713 18.9446 24.4662 19.4507 24.4662C19.9568 24.4662 20.4714 14.1264 19.9654 13.3739C19.9427 13.3169 19.9054 13.2666 19.8571 13.228C19.8088 13.1893 19.7513 13.1636 19.69 13.1534C19.6287 13.1432 19.5657 13.1488 19.5073 13.1697C19.4488 13.1906 19.3968 13.226 19.3564 13.2725Z" fill="#253853"/>
<path fill-rule="evenodd" clip-rule="evenodd" d="M26.1759 13.6529C25.7641 14.101 25.6182 14.5998 25.8155 14.8027C26.2788 15.2508 27.291 14.1517 27.0422 13.45C26.9393 13.0188 26.6305 13.0696 26.1759 13.6529Z" fill="#253853"/>
<path fill-rule="evenodd" clip-rule="evenodd" d="M11.4633 14.4988C11.5349 14.6929 11.6488 14.8693 11.797 15.0154C11.9452 15.1615 12.1242 15.2737 12.3212 15.3442C12.733 15.4964 12.9389 15.2934 12.7844 14.8962C12.7124 14.7022 12.5983 14.5262 12.4501 14.3801C12.302 14.2341 12.1234 14.1217 11.9266 14.0507C11.5149 13.8731 11.309 14.0761 11.4633 14.4988Z" fill="#253853"/>
<path fill-rule="evenodd" clip-rule="evenodd" d="M7.08175 19.292C7.00582 19.3936 6.96484 19.5165 6.96484 19.6428C6.96484 19.769 7.00582 19.892 7.08175 19.9937C7.44203 20.6024 8.79737 20.5516 8.79737 19.9937C8.79737 19.4356 7.4935 18.8946 7.08175 19.292Z" fill="#253853"/>
<path fill-rule="evenodd" clip-rule="evenodd" d="M18.7549 25.92C18.6006 26.1651 18.7549 26.5709 19.1152 26.8669C19.8787 27.5263 21.2511 26.8669 20.8308 26.0214C20.3676 25.3619 19.1495 25.269 18.7549 25.92Z" fill="#253853"/>
<path fill-rule="evenodd" clip-rule="evenodd" d="M5.24609 27.476C5.24609 27.7212 5.70932 27.9748 6.21542 27.9748C6.45974 27.9845 6.70351 27.9453 6.93202 27.8596C7.16054 27.7739 7.36906 27.6433 7.54501 27.476C7.74231 27.1717 7.28766 26.9688 6.57568 26.9688C5.86371 26.9688 5.24609 27.1801 5.24609 27.476Z" fill="#253853"/>
<path fill-rule="evenodd" clip-rule="evenodd" d="M12.889 29.8351C10.4957 31.3907 8.86593 32.7434 9.21763 32.8956C9.93819 33.0901 17.9758 28.1273 17.9758 27.4256C17.9758 26.7238 17.3153 26.969 12.889 29.8351Z" fill="#253853"/>
<path fill-rule="evenodd" clip-rule="evenodd" d="M13.3945 38.2642C13.3945 38.6616 13.6004 39.0166 13.8578 39.0166C14.1151 39.0166 14.4153 38.6616 14.6211 38.2642C14.827 37.8668 14.6212 37.5117 14.158 37.5117C13.9568 37.5161 13.7652 37.5966 13.6229 37.7369C13.4807 37.8771 13.3989 38.0659 13.3945 38.2642Z" fill="#253853"/>
<path d="M20.0178 40.0142C20.2973 40.0142 20.5239 39.454 20.5239 38.763C20.5239 38.0719 20.2973 37.5117 20.0178 37.5117C19.7383 37.5117 19.5117 38.0719 19.5117 38.763C19.5117 39.454 19.7383 40.0142 20.0178 40.0142Z" fill="#253853"/>
</svg>
