<svg width="81" height="80" viewBox="0 0 81 80" fill="none" xmlns="http://www.w3.org/2000/svg">
<path fill-rule="evenodd" clip-rule="evenodd" d="M23.0548 16.6623L1.80217 24.6977L1.31875 26.7334C0.146009 31.4475 3.01967 44.4827 7.16454 52.9109C13.064 64.8836 25.6061 72.6245 36.3935 70.8745C39.3656 70.4013 75.6579 53.0717 75.6579 52.1252C75.6579 51.8038 73.7421 50.161 71.4056 48.3664C66.5177 44.6433 59.9825 38.6526 59.9825 37.9204C60.0362 37.4472 68.4782 31.8849 73.7421 28.8583C79.006 25.8316 79.5879 25.4209 79.9549 23.6353C80.7069 19.5015 77.0903 14.8856 73.0528 14.8856C72.3635 14.8856 70.6088 15.7784 69.1764 16.8498C64.4408 20.4211 53.0625 27.6083 52.4896 27.2869C50.9497 26.394 47.4942 17.2248 45.9545 9.95722C45.7396 9.16261 45.3188 8.5287 44.9429 8.58226C44.5668 8.63584 34.7463 12.216 23.0548 16.6623ZM46.0619 14.4928C46.895 17.6902 48.0063 20.809 49.3832 23.8138L51.6123 28.2779L50.0993 29.5368C48.8957 30.4186 47.6335 31.218 46.3215 31.9296C44.4684 32.9295 43.985 32.9831 43.2956 32.4028C42.0244 31.3403 42.2213 31.0278 44.6296 29.8851C45.847 29.3582 46.59 28.8225 46.2767 28.7155C45.5078 28.7538 44.759 28.9742 44.0924 29.3582C43.4356 29.7631 42.7198 30.0643 41.9707 30.251C41.4873 30.251 38.1929 24.4745 38.1929 23.7334C38.9142 23.2182 39.7244 22.8399 40.5832 22.6175C41.4812 22.3563 42.3038 21.8848 42.9823 21.2425C42.9823 20.9746 41.8633 21.2425 40.4846 21.8228C38.5152 22.671 37.9333 22.7156 37.5573 22.1889C37.1813 21.6621 37.1365 21.7157 37.1365 22.3495C37.1365 22.9835 35.9549 23.7157 33.8421 24.6173C29.8047 26.3048 29.8047 26.3048 29.1601 24.7691C28.6857 23.662 28.632 23.7157 28.7931 25.0905C28.9542 26.4655 28.632 26.7334 24.6482 28.3762C20.6645 30.019 20.3422 30.0725 19.7603 29.269C19.1784 28.4654 19.071 28.5279 19.071 29.5279C19.071 30.3314 18.2743 30.9653 15.5617 32.0725C12.0524 33.5634 11.4706 33.5099 10.8887 31.5456C10.7275 30.9653 10.6738 31.2778 10.7812 32.2331C10.8887 33.8223 10.7275 34.0188 8.55213 34.9919C5.67847 36.2598 5.86647 36.9473 8.70432 35.733C9.82335 35.3045 10.8887 35.0991 11.0408 35.358C11.7839 36.1347 14.4695 42.3845 14.2368 42.581C14.1293 42.6256 12.8492 43.2684 11.4169 43.9023C9.98449 44.5362 8.97288 45.2237 9.09822 45.3845C10.1761 45.2007 11.2165 44.8418 12.1777 44.3219L14.9977 43.0005L17.2268 46.0183C18.1737 47.3369 19.2022 48.5953 20.3063 49.786C21.7387 50.8931 21.4254 51.3752 18.1847 52.7502C16.5375 53.4912 15.3111 54.1787 15.499 54.3394C15.687 54.5002 17.1552 53.9912 18.9457 53.2323L22.1326 51.7949L24.5766 53.8127C25.9194 54.884 27.0026 55.5626 27.0026 55.2412C27.0026 54.9198 26.1521 54.0805 25.1406 53.3306C24.4197 52.8519 23.7918 52.2469 23.2875 51.5449C23.2875 51.3306 25.0779 50.2146 27.3249 49.1611L31.4787 47.1343L33.6541 49.2503C34.4428 50.1528 35.4008 50.8928 36.4741 51.4289C36.8411 51.4289 35.9906 50.3664 34.612 49.0985L32.1412 46.7594L34.3703 45.6523C37.1365 44.2684 37.6647 44.2684 37.2887 45.7058C36.9753 46.813 37.0828 46.813 41.5948 46.5987L46.223 46.2773L52.4896 42.3042L58.8099 38.3311L61.7909 41.3488C64.2418 43.7039 66.8114 45.9329 69.4898 48.0272C71.1666 49.2677 72.7633 50.6126 74.2703 52.0538C74.324 52.3217 48.8191 64.6694 43.4568 66.9997C42.0424 67.5193 40.583 67.9078 39.0971 68.1604C36.9217 68.4817 36.492 68.3745 35.2208 67.1068L33.8421 65.7229L31.237 66.7854C27.7278 68.321 26.4566 68.2139 22.2042 65.9907C17.4775 63.4998 11.578 57.3572 8.77594 52.0002C7.32577 49.0312 6.12794 45.9462 5.19505 42.7774C3.5568 37.1704 2.1155 26.2066 2.91224 25.5101C3.18081 25.2513 12.1061 21.8049 22.7862 17.7783C33.4662 13.7517 42.5526 10.3054 42.9823 10.0376C44.5221 9.18939 44.8354 9.61794 46.0619 14.4928ZM76.7679 17.6712C79.9549 20.5818 79.9102 25.4209 76.6158 25.4209C74.602 25.1778 72.7289 24.2658 71.2982 22.8317C70.1791 21.3317 69.9733 18.5729 70.8684 17.1981C72.0949 15.341 74.4493 15.5016 76.7679 17.6712ZM71.9874 24.9834C74.0644 27.0994 73.7779 27.7423 71.3519 26.2066C70.4617 25.5516 69.7379 24.6974 69.2388 23.7128C68.7398 22.7282 68.4793 21.6404 68.4782 20.5372C68.4782 17.7248 69.2302 17.6712 69.6509 20.4836C69.8472 22.2194 70.6793 23.8218 71.9874 24.9834ZM69.8658 26.0459C71.3519 27.6351 71.0833 28.1082 69.4361 26.8405C68.2186 25.9477 66.8847 22.7067 66.9385 20.8496C66.9922 19.689 67.1532 19.9568 67.6815 21.9657C68.1502 23.4488 68.8909 24.8322 69.8658 26.0459ZM66.1416 22.1264C66.7326 25.037 67.583 26.5905 69.1228 27.7958L70.7162 28.9922L65.4971 32.2956C62.5788 34.1527 57.6371 37.2776 54.3964 39.349C47.4316 43.7417 46.42 44.1701 45.0413 43.4738C42.6511 42.1524 41.5321 36.858 43.3941 35.2152C44.5131 34.1527 64.8794 20.7961 65.3897 20.7425C65.6135 20.689 65.9358 21.3317 66.1416 22.1264ZM39.0971 27.3672L40.8875 30.8135L37.9691 32.1349C36.8701 32.6459 35.7399 33.0872 34.5852 33.4564C34.2092 33.4564 30.0106 27.0458 30.3328 26.8851C30.6551 26.7245 36.868 24.0192 37.1365 23.9656C37.9326 25.0115 38.5915 26.1548 39.0971 27.3672ZM33.4124 33.8313C33.4124 34.0456 31.3981 35.108 28.9363 36.1615L24.4154 38.1257L23.4217 36.6972C21.882 34.5188 20.5571 31.8224 20.7361 31.1796C20.8704 30.8671 22.8936 29.8851 25.2121 28.9922L29.4645 27.2066L31.4787 30.3404C32.2182 31.4492 32.8649 32.6168 33.4124 33.8313ZM21.4612 34.7866C22.1699 35.9679 22.7691 37.2111 23.2517 38.5008C22.9293 38.7597 15.8123 41.8846 15.4364 41.8846C15.0603 41.8846 12.3569 36.4294 12.0883 35.108C11.9808 34.5723 17.6207 31.6081 19.25 31.3403C19.3306 31.2867 20.3959 32.876 21.4612 34.7866ZM42.6064 32.5635C43.4031 33.7777 43.4031 33.8848 42.2303 34.6795C41.4069 35.2696 40.8225 36.1343 40.5832 37.1169C40.3772 37.9651 40.0012 38.7061 39.6879 38.7061C38.6574 38.1445 37.7455 37.3897 37.0022 36.4829L34.8447 34.2599L37.987 32.8224C41.8633 31.0278 41.6485 31.0278 42.6064 32.5635ZM39.0255 40.9918C38.551 42.8399 38.1302 43.2148 34.7284 44.7505L31.5324 46.179L28.1933 42.6792C26.3312 40.7239 24.9974 38.9204 25.2659 38.7061C26.7584 37.8207 28.3213 37.0592 29.9389 36.4294L34.1644 34.5723L36.7695 37.1704C38.7838 39.2418 39.3119 40.09 39.0434 40.9918H39.0255ZM44.0208 43.6702C45.8112 45.1523 45.6143 45.5809 42.9644 45.5809C39.8222 45.5809 39.0255 43.7952 40.413 39.9114L41.1024 38.1257L41.7917 40.2418C42.2569 41.5452 43.0165 42.7243 44.0118 43.688L44.0208 43.6702ZM27.495 43.0363L30.7894 46.6076L22.4191 50.8395L20.5571 48.8843C18.2743 46.5004 15.6691 43.0005 15.9377 42.7327C18.3982 41.3913 20.975 40.2738 23.6366 39.3936C25.0695 40.4562 26.3708 41.6851 27.5129 43.0542L27.495 43.0363ZM34.988 68.0979C36.2145 69.4281 36.2145 69.4281 35.0954 69.4281C34.2031 69.3577 33.3257 69.1592 32.4903 68.8389C31.0579 68.3121 31.0579 68.2585 32.0158 67.5175C33.4124 66.4907 33.5735 66.5801 35.0059 68.1156L34.988 68.0979Z" fill="#253853"/>
<path fill-rule="evenodd" clip-rule="evenodd" d="M40.2152 12.7958C39.1499 13.3762 38.935 15.1261 39.7855 15.6529C41.379 16.6082 43.5633 14.3315 42.3906 12.9744C41.7012 12.1083 41.4327 12.028 40.2152 12.7958ZM41.379 14.3315C41.3802 14.401 41.3673 14.4701 41.3413 14.5344C41.3151 14.5989 41.2763 14.6575 41.227 14.7067C41.1776 14.7558 41.119 14.7945 41.0543 14.8206C40.9897 14.8467 40.9205 14.8594 40.8508 14.8582C40.7135 14.8497 40.584 14.7916 40.4867 14.6946C40.3894 14.5975 40.3311 14.4684 40.3226 14.3315C40.3214 14.262 40.3342 14.193 40.3604 14.1285C40.3864 14.064 40.4254 14.0054 40.4746 13.9563C40.5239 13.9072 40.5826 13.8684 40.6472 13.8423C40.7118 13.8163 40.7811 13.8035 40.8508 13.8047C40.9215 13.7993 40.9926 13.8093 41.059 13.8339C41.1256 13.8585 41.186 13.8971 41.2362 13.9472C41.2864 13.9971 41.3251 14.0574 41.3497 14.1237C41.3743 14.1901 41.3843 14.2609 41.379 14.3315Z" fill="#253853"/>
<path fill-rule="evenodd" clip-rule="evenodd" d="M32.6691 16.0283C31.9261 17.0372 31.9261 17.2961 32.5617 17.939C32.8215 18.1438 33.1268 18.2833 33.452 18.3459C33.7772 18.4086 34.1126 18.3924 34.4303 18.2988C34.7479 18.2052 35.0383 18.0368 35.2771 17.8079C35.5159 17.5791 35.696 17.2964 35.8025 16.9836C36.5455 14.7069 34.0478 14.0105 32.6691 16.0283ZM34.4596 16.9836C34.4596 17.2515 34.0836 17.5104 33.6628 17.5104C33.2421 17.5104 32.8661 17.2515 32.8661 16.9836C32.8661 16.7158 33.2332 16.4479 33.6628 16.4479C34.0925 16.4479 34.4775 16.6622 34.4775 16.9836H34.4596Z" fill="#253853"/>
<path fill-rule="evenodd" clip-rule="evenodd" d="M23.8496 19.4205C23.2677 20.0544 23.3214 20.3758 24.0644 21.1169C25.1209 22.1704 26.6606 21.4293 26.9292 19.6883C27.0903 18.7955 26.8217 18.5723 25.8101 18.5723C25.4426 18.5724 25.0789 18.6476 24.7417 18.7936C24.4044 18.9394 24.1008 19.1528 23.8496 19.4205ZM25.9713 20.1615C25.9713 20.4294 25.6042 20.6883 25.1746 20.6883C24.7448 20.6883 24.3778 20.4294 24.3778 20.1615C24.3778 19.8936 24.7538 19.6348 25.1746 19.6348C25.5952 19.6348 25.9713 19.8401 25.9713 20.1615Z" fill="#253853"/>
<path fill-rule="evenodd" clip-rule="evenodd" d="M15.0865 22.5989C14.1286 23.6077 14.2361 24.3845 15.5073 25.1434C16.5189 25.7772 17.7901 25.197 18.748 23.7148C19.8401 21.9649 16.68 21.0096 15.0865 22.5989ZM17.2082 23.3399C17.3694 23.6613 17.1545 24.0274 16.68 24.1881C15.6684 24.6166 15.0866 24.1881 15.6147 23.3934C15.6848 23.2445 15.7947 23.1178 15.9324 23.0273C16.0701 22.9367 16.2302 22.8858 16.395 22.8803C16.5598 22.8748 16.7231 22.9148 16.8666 22.9958C17.01 23.0769 17.1282 23.196 17.2082 23.3399Z" fill="#253853"/>
<path fill-rule="evenodd" clip-rule="evenodd" d="M5.7303 25.9386C4.665 26.8314 4.55756 27.1528 5.04099 27.9475C5.28092 28.2713 5.59097 28.537 5.94807 28.7249C6.30518 28.9127 6.70014 29.0177 7.10361 29.0324C7.50706 29.047 7.90863 28.9706 8.27843 28.8091C8.64823 28.6475 8.97676 28.4049 9.23957 28.0993C11.2539 25.8851 8.20111 23.9209 5.7303 25.9386ZM8.06683 26.7333C8.44282 27.6886 8.01311 28.0993 6.74191 28.0993C6.52378 28.1199 6.30507 28.0661 6.12162 27.9466C5.93817 27.8271 5.80086 27.6491 5.7322 27.4415C5.66354 27.234 5.66758 27.0094 5.74368 26.8045C5.81978 26.5996 5.96342 26.4264 6.15105 26.3136C6.28571 26.1685 6.45606 26.061 6.64524 26.0018C6.8344 25.9426 7.03581 25.9338 7.22945 25.9762C7.42309 26.0186 7.60225 26.1108 7.74915 26.2436C7.89604 26.3764 8.00555 26.5451 8.06683 26.7333Z" fill="#253853"/>
<path fill-rule="evenodd" clip-rule="evenodd" d="M48.5589 52.5358C38.989 57.4106 31.2364 61.598 31.4782 61.8658C31.7198 62.1337 53.6079 51.0002 53.6079 50.5806C53.6079 50.1609 52.6501 50.4734 48.5589 52.5358Z" fill="#253853"/>
<path fill-rule="evenodd" clip-rule="evenodd" d="M46.8029 58.6875C41.1719 61.7588 36.651 64.3569 36.848 64.5176C37.0449 64.6783 40.8854 62.732 45.5137 60.2767C50.142 57.8214 54.9135 55.2412 56.1847 54.6073C56.9848 54.2428 57.7365 53.781 58.4228 53.2323C58.387 52.5895 56.0504 53.652 46.8029 58.6875Z" fill="#253853"/>
<path fill-rule="evenodd" clip-rule="evenodd" d="M27.5664 62.7673C27.5664 63.5619 28.8466 64.2493 29.3568 63.7761C29.5327 63.6422 29.6592 63.4541 29.7166 63.241C29.7741 63.028 29.7592 62.8019 29.6744 62.5981C29.5896 62.3944 29.4396 62.2242 29.2478 62.1143C29.056 62.0044 28.8331 61.9609 28.6138 61.9905C28.0499 62.0262 27.5664 62.3387 27.5664 62.7673Z" fill="#253853"/>
<path fill-rule="evenodd" clip-rule="evenodd" d="M61.0189 26.679C59.1032 27.9021 54.4301 30.9199 50.6523 33.3573C46.8745 35.7947 44.0097 37.9196 44.3589 38.0179C44.9407 38.2321 65.2892 25.2505 65.2892 24.6255C65.2892 24.0005 64.3402 24.5273 61.0189 26.679Z" fill="#253853"/>
<path fill-rule="evenodd" clip-rule="evenodd" d="M57.0555 34.4649C51.532 37.9648 46.7515 40.8843 46.4292 40.9915C46.3672 41.0121 46.3114 41.0481 46.2672 41.0962C46.223 41.1443 46.1918 41.2028 46.1766 41.2663C46.1614 41.3297 46.1626 41.3959 46.1802 41.4587C46.1977 41.5217 46.2311 41.5789 46.277 41.6253C46.6978 42.045 67.9503 29.1705 67.9503 28.5366C67.9503 27.742 67.1536 28.2152 57.0555 34.4649Z" fill="#253853"/>
</svg>
