<svg width="80" height="80" viewBox="0 0 80 80" fill="none" xmlns="http://www.w3.org/2000/svg">
<path fill-rule="evenodd" clip-rule="evenodd" d="M18.959 9.49064C11.4502 11.4879 4.85155 16.3421 2.10423 21.8452C1.0357 24.0659 0.468967 26.4946 0.444207 28.9588C0.419448 31.4231 0.937276 33.8626 1.96096 36.1043C4.56502 41.4136 11.1721 46.3605 18.268 48.3157C20.0209 48.8129 21.3187 49.4618 21.3187 49.8157C21.3187 51.063 19.2708 55.7655 17.9477 57.4004C17.4688 57.942 17.0945 58.5678 16.8437 59.2459C17.2483 59.5999 20.9478 58.0492 22.844 56.7177C24.4962 55.4472 26.0077 54.0035 27.3527 52.4113C30.6478 48.6105 32.0046 48.5094 33.7491 51.813C35.2491 54.6109 39.0499 58.0661 42.4545 59.7178C45.3536 61.1168 50.3089 62.5157 52.4073 62.5157C53.3596 62.5157 54.2614 63.0636 55.4075 64.3697C58.3065 67.6733 60.4133 69.4683 62.714 70.5218C65.0146 71.5752 65.9164 71.5247 64.6607 70.1678C63.6663 69.0218 61.2898 64.0158 61.2898 62.9708C61.2898 62.4146 61.8881 62.0185 63.1859 61.7657C66.2872 61.2179 71.0908 58.6139 73.9393 56.0183C77.2428 53.0096 79.4423 48.56 79.4423 44.8098C79.5434 36.4582 72.0936 28.9579 61.5341 26.7499C59.9513 26.3936 58.3466 26.143 56.7305 25.9999C55.635 25.9999 55.2811 25.6038 54.5309 23.6065C52.2303 17.4967 46.6345 12.6509 38.7802 9.99629C34.0609 8.3361 24.007 8.0917 18.959 9.49064ZM37.7605 10.5862C42.7158 12.0863 45.7159 13.7886 48.969 16.8393C51.5646 19.3676 54.3709 23.7413 54.3709 25.3426C54.3709 25.6459 53.5281 26.0926 52.5168 26.2443C46.112 27.2471 41.064 29.3456 37.6089 32.5479C36.4627 33.6014 35.0806 34.4947 34.6592 34.4947C33.6321 34.7077 32.6394 35.0623 31.7096 35.5481C28.9623 36.9471 26.7544 36.8965 23.2822 35.2953C21.0827 34.2503 20.0293 34.0481 18.4786 34.3009C16.279 34.6464 12.7817 36.551 13.7256 36.8291C14.3535 36.8394 14.9681 36.6474 15.4785 36.2813C17.7286 34.7813 20.4843 34.7812 23.2822 36.1802C26.3835 37.7308 29.1814 37.8656 31.8866 36.4835C34.5918 35.1014 35.1902 35.2279 33.9345 36.7785C32.1226 39.5477 31.0705 42.7446 30.8838 46.0487C30.8838 48.2566 30.7321 48.5768 29.6365 49.0066C28.937 49.251 28.3809 49.6556 28.3809 49.9084C28.3809 50.6584 22.6333 56.1025 20.7962 57.0548L18.9085 58.0156L20.3579 54.8637C21.0892 53.3502 21.6898 51.7769 22.153 50.1612C22.4564 48.7116 22.3552 48.4757 21.0575 48.265C13.7341 46.8492 5.42462 42.4586 2.51717 35.211C1.20997 31.9413 0.97679 28.3406 1.8514 24.9296C2.67158 21.9818 4.30053 19.3223 6.55388 17.2523C10.5485 13.2492 16.2538 10.5103 22.8103 9.49907C27.8176 8.91359 32.8906 9.28248 37.7605 10.5862ZM65.0737 28.4438C68.72 29.6956 72.0122 31.8055 74.6724 34.5958C80.3778 40.9501 79.8806 49.8578 73.4757 55.5547C70.9475 57.8554 65.2759 60.7123 62.2168 61.2601C60.3711 61.6056 60.27 61.7067 60.5735 63.1562C60.9381 64.6122 61.4581 66.0249 62.124 67.37L63.3208 70.0667L61.7954 69.1649C60.2194 67.9937 58.7629 66.6697 57.4468 65.2126C54.6911 62.2123 54.59 62.1618 50.4437 61.3612C42.4883 59.8611 37.0357 56.2036 34.3389 50.7006C31.6422 45.1975 32.2321 39.9977 36.1846 35.152C39.1341 31.5451 44.2412 28.646 49.6684 27.4999C53.0646 26.7415 61.7954 27.2977 65.0737 28.4438Z" fill="#253853"/>
<path fill-rule="evenodd" clip-rule="evenodd" d="M15.6064 20.0915C14.0053 20.6394 12.3535 21.895 12.3535 22.544C12.3535 22.7462 13.3058 22.3922 14.5025 21.7433C17.2582 20.1422 19.4578 20.1927 23.0562 21.9961C26.3093 23.5974 26.9581 23.5974 31.1129 21.6422C32.4637 20.9541 33.9534 20.5828 35.4691 20.5564C36.9849 20.5302 38.4867 20.8496 39.8605 21.4905C40.9645 22.0467 41.8662 22.3333 41.8662 21.9961C41.8662 21.6591 40.9139 21.0439 39.7678 20.4456C37.1638 19.1393 34.0624 19.3921 30.0088 21.2883C28.9368 21.832 27.8057 22.2505 26.6379 22.5355C25.3011 22.1839 24.009 21.6806 22.7867 21.0355C19.4578 19.3921 18.0588 19.2488 15.6064 20.0915Z" fill="#253853"/>
<path fill-rule="evenodd" clip-rule="evenodd" d="M32.1064 27.997C27.8926 29.8426 26.0555 29.8932 22.7604 28.1993C21.1947 27.2641 19.3627 26.8758 17.5522 27.0953C16.1754 27.2022 14.8327 27.5772 13.5998 28.1993C11.9143 29.3454 12.302 29.8005 14.2066 28.8482C17.2067 27.2976 18.6562 27.2976 22.3052 28.9999C26.3588 30.8961 27.9095 30.8455 32.8142 28.7471C36.0082 27.3987 38.41 27.247 41.1152 28.2499C42.0675 28.5954 42.0675 28.5954 41.2669 27.7442C39.7668 26.1431 36.1093 26.2442 32.1064 27.997Z" fill="#253853"/>
<path fill-rule="evenodd" clip-rule="evenodd" d="M45.7843 38.9527C41.8824 42.054 44.5792 47.3801 51.7341 50.751C54.8353 52.2512 56.4366 52.3017 59.3187 51.0038C66.7264 47.6329 69.6254 42.4501 65.8752 39.2982C63.0689 36.947 58.4676 38.051 56.6725 41.5483L55.8298 43.099L54.987 41.7C53.4869 39.2982 52.088 38.3291 49.5851 38.1521C47.6131 37.9499 46.8631 38.1016 45.7843 38.9527ZM52.2313 39.7954C53.1448 40.5199 53.8824 41.4419 54.3887 42.4922C55.5348 44.7423 56.1837 45.0204 56.6388 43.3349C57.0225 42.4036 57.5862 41.5572 58.2977 40.8442C59.0092 40.1313 59.8545 39.5658 60.785 39.1802C61.2859 38.8861 61.8561 38.731 62.4368 38.731C63.0176 38.731 63.5879 38.8861 64.0886 39.1802C66.1365 40.0229 66.4904 40.537 66.4904 42.8377C66.4916 43.4834 66.3485 44.1213 66.0714 44.7045C65.7944 45.2877 65.3904 45.8017 64.8892 46.2087C62.8414 48.3156 57.8355 51.0123 55.9394 51.0629C53.883 51.1135 49.3829 48.8128 46.9304 46.4615C44.4781 44.1103 44.1325 41.8096 46.0287 40.1073C47.9249 38.4049 49.821 38.2532 52.2144 39.8039L52.2313 39.7954Z" fill="#253853"/>
</svg>
