<svg width="127" height="31" viewBox="0 0 127 31" fill="none" xmlns="http://www.w3.org/2000/svg">
<path d="M98.5571 10.7973C97.1329 11.0158 95.7353 11.3752 94.387 11.8695C93.7285 12.1198 93.0875 12.4105 92.468 12.7398L92.0066 12.9887L91.5781 13.26C91.2899 13.4403 91.0118 13.6351 90.7451 13.8436C89.6566 14.6793 88.7292 15.6894 88.0049 16.828C87.2688 17.9439 86.777 19.1886 86.5589 20.4866L86.4906 20.9943C86.4627 21.1635 86.4726 21.3321 86.4602 21.5015C86.4442 21.8391 86.4533 22.1771 86.4877 22.513C86.4895 22.5972 86.5002 22.6809 86.5195 22.763L86.5655 23.0107C86.5892 23.1772 86.6234 23.3422 86.6678 23.5046C86.7576 23.8276 86.8656 24.1455 86.9913 24.4571C87.1233 24.7613 87.2832 25.0535 87.4693 25.3304C87.6456 25.6058 87.8488 25.8645 88.0765 26.103C88.5012 26.5617 89.0382 26.9134 89.6407 27.1272C90.4777 27.3875 91.3813 27.3926 92.2262 27.1419C92.6868 27.0185 93.1313 26.8446 93.5507 26.6237C93.6589 26.5718 93.762 26.5094 93.868 26.4525C93.9702 26.3897 94.0688 26.3213 94.1698 26.2565C94.3766 26.1329 94.574 25.9956 94.7605 25.8455C94.9428 25.6897 95.1408 25.5507 95.3135 25.3838L95.8244 24.8742L96.2834 24.3168C96.4393 24.1327 96.5563 23.9203 96.6961 23.7243C97.2176 22.9069 97.6044 22.019 97.8432 21.0918C98.3292 19.2417 98.1797 17.297 97.4168 15.5444L97.0862 14.9278C97.0313 14.8236 96.9697 14.7228 96.9015 14.626C96.8345 14.5279 96.7755 14.4245 96.7029 14.3301C96.4256 13.943 96.114 13.5795 95.7716 13.2432C95.073 12.5717 94.2698 12.0067 93.3899 11.5678C91.5686 10.6861 89.5588 10.208 87.5095 10.1689C85.4359 10.096 83.3621 10.3723 81.3829 10.9851C79.3761 11.6565 77.4502 12.5342 75.6395 13.6025C73.7966 14.6759 72.0173 15.8857 70.2308 17.1323C68.0152 18.653 65.815 20.2237 63.41 21.6564C62.1584 22.4182 60.8024 23.0099 59.3816 23.4141C58.6324 23.6156 57.861 23.7294 57.0845 23.7531C56.3126 23.771 55.5418 23.7087 54.7856 23.5673C54.0503 23.4205 53.33 23.2138 52.6327 22.9496C51.9563 22.6853 51.298 22.3812 50.6617 22.0391C49.4281 21.3668 48.2544 20.6001 47.1521 19.7465C44.9822 18.0921 42.9946 16.3158 40.9447 14.6724C38.9032 13.0262 36.7765 11.5194 34.4541 10.4367C33.2896 9.89591 32.0815 9.44323 30.841 9.0829C28.35 8.37116 25.7513 8.04757 23.145 8.12455C21.847 8.1674 20.5534 8.30469 19.2755 8.53523C18.003 8.77283 16.7522 9.11034 15.5363 9.5443L14.632 9.88461L13.7476 10.2716C13.4493 10.3934 13.167 10.5478 12.8788 10.6901C12.5918 10.8346 12.3019 10.9739 12.0267 11.1395C10.6651 11.8938 9.37081 12.7541 8.15699 13.7114C6.95013 14.6732 5.83708 15.7374 4.83175 16.8906C4.5829 17.1578 4.36979 17.4313 4.15551 17.6861C3.94121 17.9408 3.7312 18.181 3.54961 18.4226C3.36201 18.6604 3.17941 18.8853 3.00179 19.0973C2.83572 19.316 2.67713 19.5237 2.5209 19.7185C2.19913 20.1036 1.93907 20.463 1.67804 20.7712C1.41148 21.0772 1.19059 21.3531 0.97516 21.5863C0.347478 22.2655 0.0559521 22.1761 0.144425 21.3795C0.174826 21.135 0.22082 20.8924 0.282151 20.653C0.363927 20.3735 0.476935 20.055 0.614256 19.6965C0.970644 18.8258 1.41253 17.9885 1.93401 17.1958C2.74187 15.9744 3.6686 14.8275 4.70179 13.7707C5.75777 12.7009 6.91619 11.7272 8.16174 10.8627C10.9776 8.89145 14.1791 7.48176 17.5723 6.71901C20.9476 5.9759 24.4357 5.85771 27.8462 6.37087C31.2567 6.8697 34.5225 8.01288 37.4523 9.73344C40.364 11.4493 42.8953 13.5757 45.4014 15.6088C46.7848 16.7257 48.202 17.8656 49.6419 18.8479C50.3503 19.3333 51.0872 19.78 51.849 20.186C52.5752 20.5677 53.3351 20.8891 54.1201 21.1468C55.303 21.5476 56.571 21.6753 57.8206 21.5197C59.1002 21.3052 60.329 20.8667 61.4446 20.2265C62.6461 19.5501 63.8116 18.8167 64.9367 18.0292C66.0901 17.243 67.2334 16.4274 68.3868 15.6099C70.705 13.9229 73.1354 12.3815 75.6624 10.9958C76.9608 10.3034 78.3123 9.70707 79.705 9.21213C83.2531 7.93756 87.1075 7.68501 90.7864 8.48608C93.0336 8.9641 95.1079 9.98878 96.8079 11.4606C97.6561 12.2188 98.3709 13.1021 98.9253 14.0772C99.488 15.0563 99.8609 16.1252 100.026 17.2331C100.204 18.326 100.203 19.4399 100.025 20.5356C99.8429 21.6254 99.5031 22.6872 99.0158 23.6908C98.5726 24.5882 98.0076 25.4271 97.3355 26.1857C96.6403 26.9411 95.836 27.5986 94.9471 28.1382C94.0318 28.6784 93.0254 29.0619 91.9739 29.2714C91.4232 29.3766 90.8614 29.4146 90.302 29.3843C89.7242 29.3503 89.1559 29.2335 88.6161 29.0378C87.5641 28.6388 86.6396 27.9885 85.9307 27.149C85.5842 26.7504 85.2823 26.3185 85.0297 25.8599C84.9023 25.6337 84.787 25.4014 84.6845 25.1638C84.5746 24.9282 84.5075 24.6842 84.4188 24.4439L84.2947 24.0818C84.2519 23.9614 84.2345 23.8348 84.2036 23.7115C84.1498 23.4631 84.0909 23.215 84.0448 22.9654C83.9046 21.966 83.9107 20.9518 84.063 19.9516C84.1511 19.4607 84.2692 18.975 84.4168 18.4968C84.5614 18.0217 84.7353 17.5548 84.9375 17.0988C85.0352 16.8703 85.1574 16.6534 85.267 16.4305L85.4364 16.0986C85.4974 15.9906 85.5643 15.8857 85.6281 15.7792C86.1325 14.9256 86.7292 14.1242 87.4085 13.3881C88.0902 12.6549 88.845 11.9862 89.6618 11.3917C90.487 10.8211 91.3615 10.3188 92.2757 9.89033C94.0813 9.06936 95.9961 8.49184 97.9648 8.17451C98.9309 8.00939 99.9047 7.8911 100.883 7.82011C101.856 7.74207 102.827 7.7094 103.795 7.70448C106.891 7.68963 109.826 8.02116 112.605 8.3446C115.386 8.66825 118.022 9.02793 120.568 9.17173C121.737 9.23328 122.303 9.30993 122.239 9.5081C122.205 9.59421 122.015 9.72312 121.658 9.85541C121.444 9.93856 121.223 10.0092 121 10.0671C120.7 10.1509 120.396 10.2183 120.089 10.2687C119.599 10.3457 119.104 10.42 118.608 10.481C118.358 10.5203 118.109 10.5227 117.859 10.5389C117.609 10.5513 117.358 10.568 117.108 10.5762C116.106 10.615 115.101 10.6282 114.093 10.6159C112.083 10.5826 110.083 10.4807 108.118 10.4132C106.501 10.3604 104.895 10.3025 103.295 10.3366C101.714 10.3555 100.136 10.4918 98.5754 10.7445C98.57 10.7622 98.5646 10.7787 98.5571 10.7973Z" fill="#253853"/>
<path d="M114.805 12.5027C115.602 11.9203 116.43 11.3792 117.288 10.8818C117.508 10.7473 117.731 10.6208 117.954 10.4947C118.176 10.3659 118.391 10.2302 118.601 10.0904C119.314 9.59608 120.037 9.13012 120.763 8.67237C121.127 8.44505 121.491 8.22008 121.859 8.00158L122.409 7.67473C122.592 7.56447 122.778 7.46129 122.968 7.36384L123.119 10.0205L122.482 9.75715L122.16 9.62292L121.919 9.52126L121.878 9.50491L121.867 9.50118L121.865 9.50025C121.867 9.49535 121.86 9.51058 121.868 9.48913L121.863 9.48441L121.846 9.46865C121.678 9.30114 121.473 9.17176 121.244 9.08987C121.029 8.99385 120.811 8.90227 120.59 8.81514C119.83 8.50765 119.058 8.19213 118.297 7.83973C117.529 7.48265 116.781 7.08687 116.057 6.65405C114.574 5.77054 113.24 4.68141 112.095 3.42216C112.007 3.3283 111.924 3.22959 111.846 3.12651C111.774 3.02029 111.703 2.91123 111.637 2.80067C111.506 2.57845 111.38 2.35493 111.27 2.12726C111.18 1.92177 111.151 1.69715 111.182 1.47597C111.213 1.25478 111.304 1.04483 111.448 0.867186C111.528 0.739976 111.636 0.63004 111.763 0.544477C111.891 0.458913 112.036 0.399621 112.188 0.370421C112.341 0.341222 112.498 0.342763 112.649 0.374949C112.801 0.407136 112.942 0.469254 113.067 0.557291C113.368 0.810777 113.628 1.10363 113.842 1.42722C114.358 2.14927 114.98 2.7954 115.692 3.34544C116.411 3.89754 117.198 4.36377 118.037 4.73387C118.521 4.9055 118.984 5.12945 119.415 5.40138C120.068 5.87204 120.785 6.25818 121.545 6.54984C121.736 6.6266 121.923 6.70909 122.123 6.77229L122.417 6.87375C122.517 6.90362 122.62 6.92664 122.722 6.95075C122.833 6.94743 122.945 6.95515 123.055 6.97378L123.35 7.08091C123.544 7.15333 123.744 7.23176 123.937 7.31401L124.316 7.4715C124.548 7.56761 124.745 7.72412 124.887 7.9231C125.028 8.12209 125.108 8.35549 125.116 8.59656C125.123 8.83763 125.06 9.07662 124.933 9.28612C124.805 9.49563 124.619 9.66717 124.395 9.7811C123.396 10.2883 122.435 10.8573 121.473 11.3994C120.521 11.9278 119.594 12.4793 118.696 13.0585C117.803 13.6248 116.959 14.2584 116.171 14.9531C115.537 15.5401 114.75 15.9563 113.895 16.1586C113.792 16.1881 113.684 16.1952 113.578 16.1796C113.472 16.164 113.371 16.126 113.283 16.0684C113.189 16.0028 113.11 15.9199 113.053 15.8246C113.018 15.7696 112.988 15.7117 112.964 15.6516C112.943 15.5917 112.905 15.5121 112.922 15.4595C112.969 15.1349 113.067 14.8186 113.214 14.5222C113.354 14.2279 113.517 13.9444 113.703 13.6741C113.862 13.4599 114.041 13.2593 114.236 13.0748C114.435 12.8947 114.642 12.7228 114.837 12.5412L114.805 12.5027Z" fill="#253853"/>
</svg>
