<svg width="111" height="56" viewBox="0 0 111 56" fill="none" xmlns="http://www.w3.org/2000/svg">
<path d="M88.1616 25.1333C87.4187 25.0139 86.6632 24.9813 85.9119 25.0361C85.1356 25.0834 84.3666 25.2079 83.6178 25.4075C82.0729 25.8178 80.6144 26.4764 79.3058 27.3544C78.6395 27.8021 78.0027 28.2878 77.3989 28.8088C76.7947 29.3421 76.2221 29.9152 75.6685 30.5105C75.1141 31.1047 74.5903 31.734 74.0783 32.3764C73.8208 32.696 73.5743 33.0271 73.322 33.3536L72.5954 34.3617C71.5876 35.7958 70.5587 37.3022 69.6563 38.7659C68.7461 40.2526 67.9548 41.8042 67.1344 43.4079C66.5803 44.5136 65.9661 45.5914 65.2943 46.637C64.5772 47.7126 63.7468 48.7169 62.8157 49.6343C61.8872 50.5359 60.8823 51.3643 59.8112 52.1113L59.0082 52.642L58.6061 52.9071C58.5358 52.9524 58.4789 52.9926 58.3962 53.04L58.1289 53.185C57.785 53.3693 57.4271 53.5295 57.0583 53.6642C56.7067 53.776 56.3509 53.9003 56.0022 53.9752C54.6374 54.2905 53.231 54.4148 51.828 54.3439C50.3796 54.3021 48.9516 54.0104 47.614 53.4833L47.0775 53.2268C46.8992 53.1342 46.7267 53.0321 46.5606 52.921C46.4786 52.8684 46.3843 52.8109 46.3135 52.7608L46.1094 52.614L45.702 52.3192C45.433 52.1156 45.1733 51.8868 44.9101 51.6701C44.6622 51.4405 44.4175 51.2084 44.176 50.9739C43.2596 50.0306 42.4432 49.0049 41.7382 47.9113C40.4004 45.7828 39.3317 43.5132 38.5536 41.1492C37.7779 38.8377 37.1765 36.4771 36.7536 34.0852C35.924 29.3453 35.5681 24.542 35.6905 19.739C35.7082 19.0034 35.7265 18.2629 35.7679 17.5321L35.8276 16.4363L35.8501 15.4217C35.8793 14.0805 35.7683 12.74 35.5188 11.4195C35.2853 10.1466 34.8627 8.91134 34.2636 7.75029C33.7052 6.63902 32.9137 5.64667 31.9371 4.83354C30.0238 3.22337 27.2689 2.71144 24.5939 3.18392C23.2266 3.43098 21.9103 3.88521 20.6962 4.52904C19.446 5.18166 18.2773 5.96485 17.2118 6.86392C16.9489 7.09716 16.6651 7.30777 16.4191 7.55983L15.6614 8.29488C15.1864 8.8151 14.6999 9.31836 14.2555 9.88738C13.7974 10.4334 13.3561 11.0153 12.9077 11.5823C12.4671 12.1556 11.9915 12.7113 11.6066 13.3128L10.3975 15.0902C10.0214 15.6984 9.66795 16.3195 9.30147 16.9331C9.12375 17.2428 8.92885 17.5438 8.76498 17.8604L7.79638 19.7672C7.63328 20.0843 7.46885 20.4008 7.33641 20.7311L6.49025 22.6901C6.33972 23.0131 6.22985 23.3508 6.108 23.6843L5.3858 25.6877C5.27487 26.0245 5.18429 26.3671 5.08237 26.7064C4.88851 27.3879 4.6745 28.0645 4.49608 28.7494C2.97106 34.8274 2.58281 41.111 3.34891 47.3156C3.50783 48.9278 3.76027 50.2382 3.84932 51.3424L3.88407 51.7449L3.93549 52.1218C3.96669 52.3664 3.99193 52.5983 4.01122 52.8175C4.05016 53.2563 4.06648 53.6456 4.06369 53.9897C4.05533 54.9924 3.77075 55.0844 3.29457 54.3414C2.96512 53.7884 2.68283 53.2116 2.45034 52.6162C2.37378 52.422 2.2801 52.2186 2.2115 51.9973C2.1443 51.7755 2.07375 51.5425 1.99983 51.2982C1.85658 50.8084 1.71002 50.272 1.56011 49.6893C0.865517 46.5975 0.531018 43.443 0.56259 40.2825C0.673591 33.0694 2.31491 25.9507 5.38926 19.3484C6.94167 16.0685 8.85519 12.9523 11.0982 10.0514L11.9301 8.96447L12.7941 7.88358C13.0994 7.53001 13.418 7.18162 13.7302 6.83025C14.0515 6.48564 14.3954 6.15826 14.7278 5.82151C16.0981 4.47831 17.6527 3.31486 19.35 2.36229C19.8337 2.11211 20.3087 1.84105 20.8246 1.63007C21.0803 1.52157 21.3287 1.39778 21.5928 1.30223L22.3876 1.01667C23.4715 0.6361 24.6007 0.383206 25.7499 0.26371C26.0407 0.227108 26.3338 0.207608 26.6272 0.205312C26.9214 0.188061 27.2163 0.186859 27.5107 0.201715L28.3959 0.256716L29.2746 0.391887C30.4346 0.60944 31.549 1.00632 32.5726 1.56656C34.1555 2.4702 35.4952 3.70849 36.4867 5.18418C37.4266 6.60804 38.1056 8.1717 38.4951 9.80927L38.6472 10.4082C38.6886 10.6084 38.7206 10.8093 38.7575 11.0099C38.8229 11.4112 38.9156 11.8125 38.946 12.2141C38.9875 12.6154 39.0355 13.0174 39.0704 13.4184L39.1207 14.6194C39.1485 15.02 39.1186 15.4194 39.1178 15.8195C39.1092 16.2168 39.1068 16.6304 39.0834 16.9931C39.0423 17.7427 39.0144 18.4886 38.9905 19.2321C38.9019 22.2074 38.9869 25.185 39.2454 28.1515C39.4945 31.0999 39.9525 34.029 40.6161 36.9195C41.0997 39.0443 41.7762 41.1257 42.6381 43.1406C43.4568 45.1096 44.5954 46.9458 46.0131 48.5828C46.3632 48.9668 46.7386 49.3297 47.1371 49.669C47.3403 49.8304 47.5248 50.0031 47.7503 50.1519L48.0751 50.3833L48.1562 50.4413L48.2248 50.483L48.359 50.5659L48.4918 50.651L48.6402 50.72C48.7414 50.7643 48.8321 50.8172 48.9404 50.8579C49.1631 50.9445 49.3906 51.019 49.6222 51.0813C50.1155 51.2149 50.6195 51.3099 51.1293 51.3652C52.1851 51.4734 53.2511 51.4563 54.3024 51.3142C54.8045 51.242 55.2996 51.1317 55.7829 50.9839C56.0053 50.9157 56.2233 50.8355 56.4361 50.7439L56.7124 50.6008C56.7364 50.5884 56.7573 50.58 56.7843 50.5645L56.8728 50.5087L57.0511 50.3991C58.755 49.4234 60.3025 48.2224 61.6467 46.8324C62.9442 45.4449 63.9395 43.7983 64.9115 42.0234C65.8799 40.2556 66.8965 38.4213 68.0641 36.6878L68.5006 36.036L68.9391 35.4052L69.8267 34.1428C70.425 33.3016 71.0405 32.4644 71.6847 31.6398C72.9649 29.9551 74.4228 28.3979 76.0362 26.9923C77.6805 25.5479 79.5897 24.3992 81.67 23.6027C83.7837 22.7575 86.087 22.4248 88.371 22.6346C89.5279 22.7589 90.658 23.0488 91.7226 23.4944C92.2622 23.7197 92.7804 23.988 93.2716 24.2967C93.761 24.6134 94.2193 24.9711 94.641 25.3654C95.286 25.9784 95.856 26.6581 96.34 27.3919C96.8161 28.0955 97.2161 28.8064 97.5929 29.5023C98.3415 30.8965 99.0321 32.2238 99.821 33.464C101.356 35.8557 103.257 38.0193 105.462 39.8845C105.835 40.1936 106.173 40.5387 106.471 40.9143C106.656 41.1814 106.689 41.3695 106.572 41.4622C106.454 41.555 106.188 41.5493 105.775 41.4278C105.196 41.2381 104.645 40.9784 104.136 40.6553C103.174 40.0595 102.254 39.4046 101.382 38.6948C100.492 37.9574 99.6634 37.1551 98.9051 36.2956C98.1453 35.4297 97.45 34.5152 96.8238 33.5585C96.1975 32.6139 95.6458 31.6524 95.1116 30.7415C94.8906 30.366 94.6779 29.9976 94.4563 29.6452C94.2488 29.2825 94.0271 28.9446 93.8065 28.6151C93.3952 27.9907 92.9003 27.4191 92.3341 26.9147C91.776 26.4299 91.1395 26.0328 90.4487 25.7381C89.7316 25.4283 88.9737 25.2108 88.1954 25.0914L88.1616 25.1333Z" fill="#253853"/>
<path d="M107.755 32.0501C107.767 32.9239 107.829 33.8036 107.928 34.694C107.966 35.1708 108.045 35.6441 108.161 36.1096C108.619 37.7312 109.133 39.3932 109.511 41.0874C109.573 41.3665 109.567 41.6553 109.493 41.9319C109.419 42.2084 109.28 42.4652 109.085 42.6831C108.89 42.9009 108.646 43.0737 108.37 43.1885C108.093 43.3034 107.793 43.3571 107.492 43.3456L107.26 43.335L104.508 43.2141C102.881 43.1387 101.271 43.0849 99.6684 43.0933C98.0648 43.0971 96.4615 43.1678 94.8341 43.2872C94.3259 43.2983 93.8186 43.2391 93.3286 43.1115C92.8454 43.0092 92.4877 42.5386 92.2267 41.901C91.8456 40.9726 92.0123 39.9256 92.6695 39.6201C93.0913 39.4426 93.5539 39.3691 94.0139 39.4064C96.1156 39.4847 98.2202 39.3574 100.294 39.0266C100.876 38.9389 101.488 38.7971 102.049 38.9498C103.829 39.4346 105.631 39.2991 107.384 39.6341L107.656 39.6835L105.677 41.6597C105.589 40.5448 105.353 39.447 105.192 38.3251C104.88 36.1797 104.549 33.9432 104.363 31.694C104.323 31.2485 104.371 30.7999 104.505 30.3713C104.67 29.9138 104.929 29.4916 105.267 29.1291C105.331 29.0457 105.414 28.9776 105.511 28.9302C105.607 28.8829 105.714 28.8576 105.823 28.8564C106.09 28.8662 106.347 28.9556 106.556 29.1119L106.778 29.299C106.833 29.3594 106.883 29.4241 106.926 29.4925C107.019 29.6183 107.104 29.7491 107.181 29.8843C107.3 30.1465 107.405 30.4145 107.494 30.6871C107.599 31.1371 107.666 31.5945 107.694 32.0547L107.755 32.0501Z" fill="#253853"/>
</svg>
