<svg width="116" height="115" viewBox="0 0 116 115" fill="none" xmlns="http://www.w3.org/2000/svg">
<path d="M77.0274 24.3596C75.6561 25.0502 74.6205 25.7166 74.26 27.0862C74.1185 27.6227 74.1174 27.6336 73.9535 27.5198C73.16 26.9707 72.3607 26.3359 71.3487 26.4888C70.8433 26.5653 69.9871 26.9247 70.0084 27.4289C69.9728 27.7728 70.3178 27.8625 70.5604 27.6601C72.4516 26.0834 74.4215 29.9658 74.862 28.273C74.981 27.8171 74.8493 27.7941 75.1696 26.9787C75.6722 25.7011 77.3218 25.3681 77.6916 24.7678C77.9158 24.4039 77.4874 24.1279 77.0274 24.3596Z" fill="#190D39"/>
<path d="M13.3671 81.5403C12.9106 81.5173 12.0383 81.8197 11.2511 82.6155C10.5738 83.3009 10.9113 83.7868 10.5519 83.6074C9.84578 83.2549 9.03101 82.7966 8.18058 82.8122C6.62233 82.8409 6.99263 84.0381 7.61306 83.7092C8.32893 83.3291 9.60946 84.0421 10.3064 84.4227C11.9342 85.3123 11.001 83.6476 12.243 82.8564C12.7605 82.527 13.2188 82.3044 13.5304 82.0601C13.7472 81.8899 13.7708 81.5604 13.3671 81.5403Z" fill="#190D39"/>
<path d="M24.7237 77.9104C24.6294 78.0542 24.6242 78.0479 24.4615 77.9691C23.1292 77.3245 22.9706 77.1727 21.7814 77.0566C21.5146 77.1175 21.0851 77.1428 21.1213 77.5091C21.1449 77.7477 21.4485 77.8305 21.6877 77.8374C23.7272 77.892 24.5822 79.8143 25.3521 78.4711C25.9818 77.3728 28.4261 76.2079 28.3519 76.0112C28.0719 75.2666 25.5384 76.6725 24.7237 77.9104Z" fill="#190D39"/>
<path d="M88.7654 27.2639C87.3417 27.8102 87.1537 28.1253 86.5931 29.0367C85.933 28.6163 85.2108 28.1224 84.3281 28.2345C83.3018 28.3645 83.7485 29.4599 84.3304 29.0706C84.8336 28.7342 86.278 29.8693 86.4648 29.9797C86.7972 30.1763 87.1129 30.0648 87.2555 29.7031C87.9317 27.985 88.9316 28.3541 89.3824 27.7343C89.6026 27.4313 89.3059 27.0575 88.7654 27.2651V27.2639Z" fill="#190D39"/>
<path d="M90.4274 18.6276C89.0991 19.6275 89.2705 20.1709 89.0767 20.0335C88.3925 19.5488 87.9675 19.1951 87.3448 19.1399C86.7675 19.1279 86.5007 19.4809 86.6468 19.7828C86.8486 20.2008 86.9998 19.7431 87.5955 20.0208C88.6075 20.4929 89.5557 21.9465 89.8794 20.5918C90.1652 19.3952 91.8925 18.8841 91.9046 18.8783C92.4525 18.5966 91.7792 17.6093 90.4274 18.6276Z" fill="#190D39"/>
<path d="M14.8247 72.4508C14.1865 72.0914 13.585 71.6953 12.7708 71.8051C12.3108 71.8672 12.2234 72.4255 12.7864 72.4589C14.4464 72.5578 15.0168 74.3891 15.6499 72.6682C15.8822 72.0368 16.724 71.057 16.9183 70.8443C18.0971 69.5511 18.1339 69.7759 18.3581 69.558C18.6502 69.2739 16.7263 68.9778 14.8247 72.4508Z" fill="#190D39"/>
<path d="M64.9774 94.2134C64.9774 91.9082 65.0924 90.0521 66.7081 88.3622C68.8149 86.1577 70.3381 85.7109 72.3092 85.7552C74.9628 85.815 77.1156 86.6522 78.7952 88.7072C80.3425 90.6007 80.0337 90.8893 80.3247 90.3109C81.8502 87.2783 84.5751 85.3803 87.1091 84.8702C91.1111 84.0652 96.4687 87.8752 96.2206 91.7909C96.1176 93.4188 94.472 96.6779 94.9964 96.6951C97.6781 96.7833 99.6657 97.1954 102.777 100.294C103.42 100.935 104.353 102.269 104.484 103.148C104.567 103.7 104.849 103.651 106.947 104.181C109.443 104.812 110.461 104.973 111.446 105.949C112.263 106.758 111.904 107.888 111.029 108.415C109.087 109.582 107.184 109.648 105.142 109.616C98.2828 109.511 95.6668 109.885 78.3375 109.318C69.7591 109.037 77.7625 109.22 63.7267 108.782C44.9283 108.194 46.1858 108.806 43.6753 108.441C41.8825 108.182 39.2835 107.679 39.9206 105.982C40.3133 104.939 42.1481 104.663 43.4212 104.3C45.5527 103.693 46.0426 103.339 49.1827 103.294C50.5661 103.274 52.1215 103.474 52.2998 102.098C52.4958 100.589 52.286 100.13 52.8161 98.768C53.2301 97.7042 54.4508 96.2217 56.2581 95.3536C59.4614 93.8144 62.088 95.8251 64.361 97.1973C64.787 97.4551 64.8566 97.6084 64.9072 97.4359C64.9245 97.3774 65.0136 94.2117 64.9768 94.2117L64.9774 94.2134ZM65.6576 97.1887C65.6513 97.479 65.5892 97.7579 65.5259 98.0377C65.3212 98.9367 64.3581 98.1125 63.8745 97.8202C60.7419 95.9256 60.1968 95.5256 58.1883 95.6331C56.2397 95.7377 53.992 97.6189 53.4411 99.4398C52.8017 101.553 54.0305 103.773 50.2447 103.932C48.5623 104.003 48.3834 103.835 46.8804 104.079C45.0099 104.383 44.7937 104.702 41.6255 105.515C40.702 105.751 39.6889 106.626 41.7019 107.232C45.0565 108.242 47.8176 107.507 52.6816 107.755C52.7931 107.761 52.7075 107.956 69.582 108.139C69.5952 108.139 89.3137 109.292 103.78 108.863C104.621 108.837 109.217 109.322 111.014 107.613C111.281 107.359 111.375 106.773 111.031 106.427C109.894 105.283 108.561 105.374 104.654 104.303C103.739 104.053 103.905 103.309 103.514 102.561C102.741 101.081 101.856 100.426 101.13 99.7685C96.8999 95.9409 93.6152 98.4767 94.02 96.6328C94.8848 92.6966 97.0638 91.2033 93.3387 87.5492C92.4629 86.6907 91.7735 86.4354 90.1877 85.8081C88.8226 85.2681 87.0464 85.3078 85.0868 86.4095C80.6823 88.8855 81.1694 91.7225 80.0987 91.6202C79.2592 91.5402 78.1489 86.8764 73.0918 86.5389C72.6473 86.509 71.384 86.4906 70.7969 86.5998C69.2893 86.8804 67.7977 88.2127 66.9301 89.2851C65.5368 91.0055 65.7542 92.5833 65.6576 97.1887Z" fill="#190D39"/>
<path d="M78.7283 41.885C81.1439 41.8591 82.8269 41.9868 85.0591 44.5099C86.258 45.8651 86.1838 46.2521 86.3321 45.9888C89.413 40.528 91.1156 39.7161 95.3021 39.4809C99.7461 39.2314 102.468 43.6152 102.454 46.2067C102.423 52.3408 100.046 48.8551 105.472 50.8952C106.917 51.4386 108.105 52.4161 108.013 53.9588C107.957 54.8834 107.513 55.5044 106.897 56.5538C106.587 57.0828 106.337 56.7924 109.493 57.8654C109.899 58.0028 111.324 58.5025 111.844 58.7825C112.803 59.2977 112.775 59.9084 112.317 60.1947C110.721 61.19 107.593 60.6794 104.934 60.8042C102.65 60.9117 76.905 60.6846 73.6666 60.4138C72.6931 60.3321 70.8474 60.4184 70.6548 60.4161C63.8261 60.3321 58.7701 61.0135 57.3602 59.6617C57.0393 59.3541 57.0238 58.9613 57.3424 58.6439C57.5292 58.4571 57.7592 58.3386 57.9869 58.219C59.9655 57.1771 61.9079 56.7574 62.9365 56.4992C63.6996 56.3077 63.8887 56.4319 63.8048 56.1893C63.4241 55.0864 63.6662 53.6276 64.3114 52.5938C65.3487 50.932 68.4732 50.2921 70.9411 51.5565C71.9531 52.0751 71.7231 52.0487 71.3614 50.4163C70.4949 46.508 73.6235 41.9402 78.7283 41.885ZM109.558 60.1315C110.474 60.1338 112.146 59.8152 111.786 59.553C111.657 59.4599 111.528 59.3604 111.383 59.3029C107.017 57.5606 105.642 57.8263 105.974 56.7924C106.308 55.7592 109.093 53.1699 105.339 51.6307C104.139 51.1385 102.435 50.8303 101.638 50.851C101.214 50.8619 100.925 50.5755 101.058 50.1144C102.19 46.2257 101.934 44.1304 99.1328 41.4509C98.4437 40.7925 97.4442 40.5084 96.4907 40.325C95.5373 40.1416 95.4706 40.2209 93.8629 40.3768C87.5759 40.9851 86.9968 49.4244 85.6824 46.7443C85.1793 45.7191 84.1615 44.4725 82.5147 43.3696C81.5637 42.7325 80.5517 42.7446 79.5793 42.6704C77.1724 42.487 75.4853 42.8889 73.3757 45.2476C72.263 46.4919 71.7024 48.5636 72.1768 50.5508C72.3418 51.2431 72.3499 51.9653 72.5804 52.6444C72.6305 52.7916 72.5661 52.9198 72.4424 53.0107C72.1825 53.2021 71.9537 52.9543 71.8329 52.8715C68.9758 50.9142 64.6868 51.2489 64.4057 54.577C64.3597 55.118 64.3206 55.6695 64.4885 56.2071C64.8892 57.4922 61.5565 56.7522 57.8478 59.0045C57.7219 59.0809 57.7207 59.1626 57.8478 59.2224C60.1829 60.3235 65.6356 59.3834 76.8947 59.8221C85.8848 60.1723 109.526 60.1315 109.558 60.1315Z" fill="#190D39"/>
<path d="M8.32515 108.435C32.6667 108.435 31.427 109.242 32.8438 108.399C33.8949 107.773 31.1935 106.923 29.8296 106.582C26.5268 105.756 26.0082 106.236 25.608 104.181C25.2526 102.357 25.3268 101.466 24.1072 100.802C23.5374 100.492 22.3632 100.184 21.5203 100.231C20.2127 100.304 19.5986 100.698 18.0473 101.658C17.336 102.098 16.9151 102.582 16.4879 101.931C15.8261 100.922 15.5524 96.1795 10.2951 96.8829C7.82662 97.2135 6.58347 100.181 5.79916 99.1561C5.62206 98.9251 5.43634 98.1057 4.73081 97.6965C4.01149 97.2787 3.69236 97.3621 3.45661 97.088C2.92014 96.4651 5.17126 96.4315 6.04699 97.9284C6.31552 98.3875 6.24709 98.4814 6.54782 98.2351C8.3309 96.7765 8.77077 96.076 11.3468 96.0492C12.8177 96.0338 14.2402 96.5647 15.2833 97.7579C16.3119 98.9357 16.3384 99.3774 16.7512 100.576C17.0376 101.406 17.0071 101.421 17.2089 101.297C18.7097 100.38 19.5572 99.779 20.652 99.5883C21.8664 99.3774 23.1309 99.5739 24.1503 99.9965C25.505 100.558 25.861 101.421 26.0881 102.6C26.8626 106.621 26.164 104.392 31.6115 106.338C32.7817 106.756 33.3101 107 33.7086 107.691C33.9725 108.148 33.8149 108.792 32.7937 109.197C31.3614 109.767 29.3397 109.442 28.3398 109.398C21.7687 109.108 5.09306 109.435 3.80794 109.084C3.62854 109.036 3.54574 108.691 3.82806 108.621C4.51231 108.452 8.32515 108.423 8.32515 108.435Z" fill="#190D39"/>
<path d="M45.8346 66.6389C46.3723 61.1516 46.0342 61.296 46.3194 60.974C54.5626 51.6779 61.9323 43.6205 63.0007 31.1625C63.6487 23.6128 60.2102 16.9019 56.3525 14.3306C54.8115 13.3013 54.1118 12.6912 52.3419 11.992C51.8969 11.8161 51.7623 11.6735 51.4944 11.3906C49.5382 9.31885 45.8985 7.2845 42.5198 7.12005C42.0488 7.09763 42.031 6.81933 40.4176 6.1506C38.9312 5.5342 36.7209 5.10008 34.9763 5.72798C34.7216 5.81998 34.6377 5.78663 34.4128 5.69865C32.6608 5.01038 30.144 5.14838 28.4765 6.7187C28.3305 6.8567 28.2793 6.89868 28.1879 6.88603C27.4686 6.77678 26.663 6.79 25.8586 6.92455C20.7158 7.78418 18.82 10.3309 17.9086 11.5545C17.6355 11.9213 17.4383 12.1858 17.2859 12.2272C16.459 12.452 15.3671 13.2484 14.6834 13.8631C10.9172 17.2389 9.90464 21.8993 9.42509 22.3886C6.89164 24.9813 5.17641 28.797 4.83773 32.596C4.65258 34.6844 4.77851 34.6349 4.77391 34.9748C4.71123 40.0911 8.37629 46.2724 11.5336 50.0116C18.2461 57.9598 30.362 63.0957 31.2055 64.7431C34.7038 71.5833 35.721 72.4814 35.4892 72.8402C35.1161 73.4216 35.6623 74.3669 36.2183 74.7889C36.4035 74.9292 36.3983 75.0028 36.3701 75.4105C36.285 76.6318 36.3569 78.6178 36.4679 79.9438C36.5225 80.5958 36.5185 80.6183 36.3253 80.7523C35.7756 81.1335 35.5393 81.8953 35.978 82.4749C36.066 82.5911 36.0522 82.6049 35.9159 82.7389C35.3236 83.3219 35.4674 83.6474 34.2162 84.833C33.7217 85.3011 33.3951 85.611 33.5124 86.4166C33.5561 86.7156 33.9787 87.1807 34.6279 87.2382C35.3323 87.3009 35.8561 86.6719 36.2914 86.0233C36.2402 89.184 36.1252 90.4036 37.3281 90.8717C39.7299 91.8055 41.563 91.2161 43.6974 90.6583C48.3284 89.4474 51.9871 88.4946 52.7398 87.0629C52.9071 86.7449 52.9273 86.4051 52.7996 86.0537C52.5092 85.2533 51.9785 84.1723 52.0015 84.0349C52.9158 83.7997 53.2734 82.7055 52.9307 82.0333C51.7911 79.7983 50.2196 80.156 50.2633 79.5787C50.326 78.7604 49.7021 77.8991 49.4169 77.7875C48.6343 77.4816 48.6182 77.5869 48.5256 77.3764C46.7109 73.2347 46.1428 72.8483 46.2889 72.6482C46.6431 72.164 46.4413 71.3642 46.1848 70.9502C45.6524 70.0923 45.5006 70.2602 45.5092 70.1234C45.546 69.5846 45.7271 67.7101 45.8318 66.6406L45.8346 66.6389ZM36.3621 83.1212C36.35 84.4725 36.1304 85.9111 34.7291 86.5281C33.8516 86.351 34.0845 85.7225 34.79 85.1832C35.361 84.7473 35.7129 84.1361 35.9705 83.6899C36.1166 83.4358 36.2465 83.2104 36.3621 83.1212ZM42.372 80.2002C36.5392 81.7562 36.948 82.5342 36.6502 82.1225C36.5651 82.0046 36.4834 81.8942 36.4897 81.7418C36.511 81.2766 36.9871 81.0047 37.3827 80.858C43.0545 78.7593 44.7887 78.5856 47.8604 78.251C48.2502 78.2085 48.9736 78.1302 49.2875 78.7254C49.3789 78.8984 49.5238 79.1256 49.5445 79.3602C47.8023 78.8116 44.1539 79.7253 42.372 80.2002ZM37.1027 75.4082C37.1102 75.4053 37.1539 75.3915 37.3649 75.4571C39.0565 75.9861 38.8852 75.0523 39.1002 76.4208C39.2883 77.6122 39.3826 78.0572 39.5004 78.5914C39.7701 79.8069 39.6034 78.9778 37.2528 80.2474C37.1797 80.2876 37.1884 75.5985 37.1027 75.4082ZM40.3405 75.4007C43.1718 74.8021 43.0695 74.4554 43.1615 74.7222C43.6295 76.0959 43.7031 76.4455 44.3023 77.8456C44.4345 78.1544 44.3701 77.7663 40.4325 78.9962C40.2738 79.0462 40.3836 79.3291 39.735 75.6974C39.7298 75.5853 39.9316 75.4864 40.3405 75.4007ZM47.7758 77.4926C47.6091 77.5087 46.8599 77.4954 45.416 77.7789C45.3488 77.791 45.2579 77.7881 45.174 77.7996C45.0377 77.8186 45.0377 77.8192 44.9957 77.699C44.6961 76.8422 43.8716 74.475 43.8497 74.4203C43.7727 74.234 44.8169 73.9155 45.7162 73.3692C45.7743 73.3957 45.7898 73.4773 47.0542 75.9757C47.5941 77.0429 47.7839 77.4184 47.7758 77.4926ZM45.7122 72.2664C45.6817 72.2503 45.6501 72.229 45.6127 72.2043C45.1625 71.9087 44.2246 71.2929 38.8467 73.1415C37.0647 73.7539 37.1355 74.4255 37.0061 74.4129C36.6743 74.3807 35.8026 73.2416 36.2781 72.8874C37.4442 72.0209 42.3933 70.5644 44.8272 70.6736C45.274 70.6932 45.9606 71.5074 45.7122 72.2664ZM14.0067 24.8174C14.1355 33.1457 19.1196 43.7366 23.3487 50.2749C24.4866 52.0339 29.1665 58.5653 31.4004 61.139C31.4274 61.1706 31.478 61.2287 31.4786 61.2448C31.4734 61.2684 31.2894 61.4058 31.2705 61.4202C31.1307 61.5266 30.9858 61.6358 30.8835 61.7991C30.2257 61.7945 19.1121 50.8816 15.1279 44.713C12.4116 40.5074 10.8654 37.012 10.1145 33.3797L10.1116 33.3688C7.70182 21.6865 15.3343 13.5509 16.7621 13.2835C16.4987 14.2524 13.8825 16.7594 14.0067 24.8174ZM43.714 64.746C43.7537 66.6205 43.7773 67.4761 43.6928 69.8934C43.6912 69.9319 43.5691 69.9687 43.3265 70.0049C43.3115 70.0072 42.3156 70.1699 42.3007 70.1682C42.2679 70.0889 42.3662 67.2973 42.0046 63.9697C41.9982 63.9122 41.9189 63.2337 41.9655 63.1797C41.977 63.1716 42.0534 63.1756 42.0678 63.1762C42.6911 63.1998 43.1459 62.979 43.6732 62.7766C43.6864 62.8387 43.6721 62.7709 43.714 64.746ZM40.2865 58.8154C40.5791 59.008 40.7281 58.8654 40.7528 59.031C41.2985 62.7139 41.2714 62.6714 41.0978 62.8036C40.4831 63.2711 39.57 63.7346 38.7984 63.7018C37.4667 63.6563 37.5385 63.8657 37.1056 62.4609C36.1988 59.5215 36.0257 59.648 36.1919 59.4749C37.5012 58.1128 38.8789 57.8908 40.2865 58.8154ZM37.7559 64.3164C38.7667 64.344 39.2158 64.6637 41.0805 63.6719C41.1369 63.642 41.1812 63.608 41.2168 63.5804C41.2829 63.5293 41.2824 63.4189 41.3744 64.5378C41.5382 66.5158 41.6843 67.7515 41.7843 69.9716C41.8022 70.3764 41.7935 70.2694 40.4325 70.5995C39.8098 70.7495 39.8138 70.7973 39.7678 70.6955C39.7258 70.6041 37.7616 64.3803 37.7559 64.3164ZM35.1638 65.0283C36.4943 64.9725 36.8761 64.3417 36.9785 64.3349C36.9917 64.344 38.8743 70.044 39.2101 70.9071C39.1152 70.9749 39.1255 70.9698 38.8731 71.0457C37.2355 71.5396 37.2947 71.6448 37.22 71.4821C35.3409 67.38 34.3663 65.2135 34.2478 64.8788C34.3461 64.8834 34.606 65.0484 35.1638 65.0283ZM36.6145 63.7782C35.8733 64.1997 34.9085 64.6166 34.0149 64.0876C33.7815 63.9484 33.8511 63.968 32.7166 61.5403C32.6522 61.4046 32.7045 61.5133 33.172 60.8544C33.6136 60.2334 34.7245 59.3186 35.4151 59.5963C35.5042 59.6319 35.5565 59.8038 36.2178 61.8969C36.7738 63.6569 36.8278 63.6569 36.6145 63.7782ZM43.5392 62.1148C42.993 62.3994 42.7584 62.4057 42.4042 62.4063C41.8574 62.4075 41.8792 62.4414 41.8321 61.8905C41.7475 60.9113 41.6446 60.4444 41.4715 59.5675C41.3082 58.7499 41.3013 58.7435 41.3606 58.7159C42.1966 58.3267 42.5203 58.5273 42.9798 58.8862C43.7267 59.4698 43.5806 61.3977 43.6508 61.8641C43.6772 62.0354 43.6726 62.0446 43.5392 62.1148ZM40.4446 58.0409C38.9473 56.9823 37.1113 57.5228 36.0458 58.6199C35.4168 58.0599 29.1838 42.1329 26.3456 29.2714C25.2531 24.3246 24.6183 16.7053 26.4238 11.5125C26.901 10.1371 27.5767 8.99167 28.683 7.68297C29.4126 6.81817 30.9278 6.1069 32.5481 6.15003C35.8929 6.22535 37.9784 9.6374 39.2561 12.1973C41.3864 16.4661 42.115 22.9308 42.4778 27.4221C43.6054 41.3763 40.7493 57.0214 40.4446 58.0409ZM30.9462 63.132C30.9548 63.0451 31.0318 62.3954 31.953 61.8003C32.041 61.7433 32.1301 61.6835 32.1525 61.691C32.2031 61.706 33.1904 64.0859 33.2007 64.1284C33.1358 64.1468 32.8247 64.1434 32.7609 64.1445C32.321 64.152 31.4504 63.9651 31.129 63.6575C30.9864 63.5206 30.9249 63.3441 30.9462 63.132ZM33.5986 65.0726C34.606 67.5272 36.3776 70.9393 36.8025 71.7736C36.7157 71.8461 36.7243 71.8357 36.0809 72.183C35.9354 72.2618 35.9475 72.2802 35.4565 71.3372C35.1552 70.7593 32.2278 65.3716 31.9369 64.7828C33.5986 65.0386 33.3888 64.5591 33.5986 65.0726ZM45.2579 61.4242C44.9348 61.7514 44.2885 61.8445 44.2758 61.7059C44.2632 61.5679 44.3155 61.5312 44.1804 60.4754C44.0786 59.6837 44.0918 59.7297 44.1597 59.7452C44.9359 59.9321 44.8617 60.1224 45.2079 60.4927C45.4356 60.7359 45.4321 61.2477 45.2579 61.4242ZM44.9376 69.9532C44.7502 69.9468 44.607 69.9468 44.4978 69.9468C44.3511 69.9468 44.2356 69.9468 44.2177 69.9284C44.1821 69.8681 44.2706 68.553 44.2844 68.3989C44.3345 67.8406 44.3776 67.3582 44.3322 62.6294C44.327 62.0964 44.7456 62.6334 45.5661 61.9618C45.6236 61.925 45.1487 69.5116 44.9376 69.9532ZM45.1326 59.5359C45.0751 59.5169 44.8686 59.165 44.3241 59.0713C44.3 59.0673 44.2712 59.0621 44.2551 59.0575C44.285 58.9678 44.3448 59.0914 46.4861 53.6025C49.5066 45.8601 50.9872 41.3429 51.9279 33.5626C52.4023 29.6439 52.331 23.4546 51.0551 19.126C49.4284 13.6055 47.3302 11.5245 44.6737 8.8899C44.2333 8.4529 43.9153 8.262 43.6979 8.06075C49.9591 9.84325 54.2233 14.6048 56.0035 20.8902C57.1466 24.9261 56.9143 28.2064 56.904 28.3088C56.904 28.3088 56.9011 28.3203 56.9011 28.326C56.9011 39.9606 51.0712 49.5493 47.5878 55.2786C45.0866 59.3921 45.251 59.4749 45.1326 59.5359ZM51.5415 85.4051C51.0706 85.251 50.4841 85.0584 45.002 86.3895C39.5125 87.7235 37.8088 88.5481 37.2493 88.8195C37.1866 88.85 37.1297 88.8776 37.0946 88.8914C37.0946 88.8494 37.101 88.7965 37.0958 88.7459C36.9687 83.9326 37.0653 86.052 37.0279 83.2604C37.021 82.8136 37.2453 82.6267 39.3084 81.9529C39.2607 82.1414 38.9433 82.6313 38.5827 83.4967C38.0969 84.664 38.9571 85.6271 39.9898 85.4609C40.6832 85.3511 41.437 84.4443 41.4083 83.3967C41.3715 81.9873 40.9374 81.5716 41.0058 81.4342C41.0351 81.3767 41.1265 81.3761 42.7256 80.9259C44.2948 80.4837 44.147 80.5326 44.1004 80.6988C44.0723 80.7948 44.0688 80.8184 44.0516 80.9081C43.8917 81.7303 43.6491 82.9729 44.1384 83.7031C44.4679 84.1942 45.1073 84.2327 45.596 84.1051C47.0076 83.7365 46.9795 81.3836 46.198 80.1215C46.4229 80.0387 49.3421 79.6632 49.6641 80.3866C49.7642 80.6114 51.5777 84.8549 51.7847 85.4684C51.6927 85.4546 51.6214 85.4316 51.5415 85.4051ZM44.9744 83.457C44.3868 83.315 44.5254 82.2386 44.599 81.6602C44.7582 80.4107 44.7393 80.4193 44.8589 80.3837C45.27 80.2589 45.4701 80.2313 45.6604 80.4929C46.3889 81.5009 46.2728 83.771 44.9744 83.457ZM40.7102 83.3369C40.6867 83.8561 40.6815 84.1965 40.1191 84.6421C39.6166 85.0394 38.9714 84.4225 39.1566 83.9711C39.838 82.3076 39.9259 82.3634 40.0306 81.7918C40.0421 81.7274 40.0818 81.6676 40.1467 81.6676C40.4515 81.6676 40.7384 82.805 40.7102 83.3369ZM50.4916 80.6085C51.5139 81.0903 52.1257 81.7228 52.3592 82.5399C52.3482 82.8953 52.082 83.2932 51.7744 83.411C51.71 83.4363 51.7117 83.4519 51.6203 83.2121C51.5018 82.901 50.4962 80.6211 50.4916 80.6085Z" fill="#190D39"/>
</svg>
